<svg xmlns="http://www.w3.org/2000/svg" width="215.537" height="209.109" viewBox="0 0 215.537 209.109"><g transform="translate(-1491.761 -736.43)"><g transform="translate(1493.809 738.44)"><path d="M1580.365,821.94l-76.639,46.544a20.619,20.619,0,0,0-6.918,28.328l13.753,22.649a20.623,20.623,0,0,0,28.334,6.923l77.367-46.99L1699.455,889a5.157,5.157,0,0,0,5-7.8L1619.258,740.92a5.156,5.156,0,0,0-9.243.887l-18.686,50.507" transform="translate(-1493.809 -738.44)" fill="none" stroke="#ffce00" stroke-linecap="round" stroke-linejoin="round" stroke-width="4"/><path d="M1518.542,802.552l2.877,4.733a16.211,16.211,0,0,0,22.273,5.438h0a16.207,16.207,0,0,0,5.443-22.273L1533.622,764.9,1505.9,781.735" transform="translate(-1434.91 -609.522)" fill="none" stroke="#ffce00" stroke-linecap="round" stroke-linejoin="round" stroke-width="3"/></g><line x2="35.624" y2="57.454" transform="translate(1580.639 821.942)" stroke-width="4" stroke="#ffce00" stroke-linecap="round" stroke-linejoin="round" fill="none"/></g></svg>