<svg xmlns="http://www.w3.org/2000/svg" width="184.404" height="240.143" viewBox="0 0 184.404 240.143"><g transform="translate(-1600.111 -1717.292)"><path d="M291.036,6756.438a97.466,97.466,0,0,0-40.452,122.719,90.51,90.51,0,0,1-41.36-43.746c-1.164-2.617-2.191-5.3-3.106-8.035-13.052,16.328-22.05,37.594-24.973,61.34a89.6,89.6,0,0,0-1.033,12.93c0,.387.052.75.059,1.137a90.169,90.169,0,0,0,90.143,89.063" transform="translate(1422 -5036.409)" fill="none" stroke="#ffce00" stroke-linecap="round" stroke-linejoin="round" stroke-width="4"/><path d="M193.9,6991.844a90.068,90.068,0,0,0,90.143-89.062c.006-.387.059-.75.059-1.137a104.937,104.937,0,0,0-1.033-12.93c-.15-1.234-.347-2.477-.589-3.719-3.525-18.555-15.191-34.652-31.2-44.656a80.588,80.588,0,0,1-36.659-83.9" transform="translate(1498.408 -5036.409)" fill="none" stroke="#ffce00" stroke-linecap="round" stroke-linejoin="round" stroke-width="4"/></g></svg>