<svg xmlns="http://www.w3.org/2000/svg" width="570" height="570" viewBox="0 0 570 570"><g transform="translate(-257 -1349)"><g transform="translate(257 1349)" fill="#9da5a8" stroke="#111" stroke-width="10"><circle cx="285" cy="285" r="285" stroke="none"/><circle cx="285" cy="285" r="280" fill="none"/></g><g transform="translate(278.769 1397.694)" opacity="0.1"><g transform="translate(129.763)"><g transform="translate(120.304)"><line y2="48.122" fill="none" stroke="#251313" stroke-width="5"/><line y2="48.122" transform="translate(24.061)" fill="none" stroke="#251313" stroke-width="5"/></g><g transform="translate(240.608)"><line y2="48.122" fill="none" stroke="#251313" stroke-width="5"/><line y2="48.122" transform="translate(24.061)" fill="none" stroke="#251313" stroke-width="5"/></g><g transform="translate(168.425 12.603)"><line x2="48.122" fill="none" stroke="#251313" stroke-width="5"/><line x2="48.122" transform="translate(0 24.061)" fill="none" stroke="#251313" stroke-width="5"/></g><g transform="translate(48.122 12.603)"><line x2="48.122" fill="none" stroke="#251313" stroke-width="5"/><line x2="48.122" transform="translate(0 24.061)" fill="none" stroke="#251313" stroke-width="5"/></g><line y2="48.122" fill="none" stroke="#251313" stroke-width="5"/><line y2="48.122" transform="translate(24.061)" fill="none" stroke="#251313" stroke-width="5"/></g><g transform="translate(70.464 71.698)"><g transform="translate(238.691)"><line y2="48.122" fill="none" stroke="#251313" stroke-width="5"/><line y2="48.122" transform="translate(24.061)" fill="none" stroke="#251313" stroke-width="5"/></g><g transform="translate(358.036)"><line y2="48.122" fill="none" stroke="#251313" stroke-width="5"/><line y2="48.122" transform="translate(24.061)" fill="none" stroke="#251313" stroke-width="5"/></g><g transform="translate(285.854 12.603)"><line x2="48.122" fill="none" stroke="#251313" stroke-width="5"/><line x2="48.122" transform="translate(0 24.061)" fill="none" stroke="#251313" stroke-width="5"/></g><g transform="translate(166.988 12.603)"><line x2="48.122" fill="none" stroke="#251313" stroke-width="5"/><line x2="48.122" transform="translate(0 24.061)" fill="none" stroke="#251313" stroke-width="5"/></g><g transform="translate(119.345)"><line y2="48.122" fill="none" stroke="#251313" stroke-width="5"/><line y2="48.122" transform="translate(24.061)" fill="none" stroke="#251313" stroke-width="5"/></g><g transform="translate(48.122 12.603)"><line x2="48.122" fill="none" stroke="#251313" stroke-width="5"/><line x2="48.122" transform="translate(0 24.061)" fill="none" stroke="#251313" stroke-width="5"/></g><line y2="48.122" fill="none" stroke="#251313" stroke-width="5"/><line y2="48.122" transform="translate(24.061)" fill="none" stroke="#251313" stroke-width="5"/></g><g transform="translate(10.885 143.396)"><g transform="translate(48.122)"><g transform="translate(70.745)"><g transform="translate(120.304)"><line y2="48.122" fill="none" stroke="#251313" stroke-width="5"/><line y2="48.122" transform="translate(24.061)" fill="none" stroke="#251313" stroke-width="5"/></g><g transform="translate(240.608)"><line y2="48.122" fill="none" stroke="#251313" stroke-width="5"/><line y2="48.122" transform="translate(24.061)" fill="none" stroke="#251313" stroke-width="5"/></g><g transform="translate(168.425 12.603)"><line x2="48.122" fill="none" stroke="#251313" stroke-width="5"/><line x2="48.122" transform="translate(0 24.061)" fill="none" stroke="#251313" stroke-width="5"/></g><g transform="translate(48.122 12.603)"><line x2="48.122" fill="none" stroke="#251313" stroke-width="5"/><line x2="48.122" transform="translate(0 24.061)" fill="none" stroke="#251313" stroke-width="5"/></g><line y2="48.122" fill="none" stroke="#251313" stroke-width="5"/><line y2="48.122" transform="translate(24.061)" fill="none" stroke="#251313" stroke-width="5"/></g><g transform="translate(358.036 12.603)"><line x2="48.122" fill="none" stroke="#251313" stroke-width="5"/><line x2="48.122" transform="translate(0 24.061)" fill="none" stroke="#251313" stroke-width="5"/></g><g transform="translate(0 12.603)"><line x2="48.122" fill="none" stroke="#251313" stroke-width="5"/><line x2="48.122" transform="translate(0 24.061)" fill="none" stroke="#251313" stroke-width="5"/></g></g><g transform="translate(478.34)"><line y2="48.122" fill="none" stroke="#251313" stroke-width="5"/><line y2="48.122" transform="translate(24.061)" fill="none" stroke="#251313" stroke-width="5"/></g><line y2="48.122" fill="none" stroke="#251313" stroke-width="5"/><line y2="48.122" transform="translate(24.061)" fill="none" stroke="#251313" stroke-width="5"/></g><g transform="translate(393.298 473.757) rotate(180)"><g transform="translate(120.304)"><line y2="48.122" fill="none" stroke="#251313" stroke-width="5"/><line y2="48.122" transform="translate(24.061)" fill="none" stroke="#251313" stroke-width="5"/></g><g transform="translate(240.608)"><line y2="48.122" fill="none" stroke="#251313" stroke-width="5"/><line y2="48.122" transform="translate(24.061)" fill="none" stroke="#251313" stroke-width="5"/></g><g transform="translate(168.425 12.603)"><line x2="48.122" transform="translate(0 0)" fill="none" stroke="#251313" stroke-width="5"/><line x2="48.122" transform="translate(0 24.061)" fill="none" stroke="#251313" stroke-width="5"/></g><g transform="translate(48.122 12.603)"><line x2="48.122" transform="translate(0 0)" fill="none" stroke="#251313" stroke-width="5"/><line x2="48.122" transform="translate(0 24.061)" fill="none" stroke="#251313" stroke-width="5"/></g><line y2="48.122" fill="none" stroke="#251313" stroke-width="5"/><line y2="48.122" transform="translate(24.061)" fill="none" stroke="#251313" stroke-width="5"/></g><g transform="translate(452.561 402.059) rotate(180)"><g transform="translate(238.726 0)"><line y2="48.122" transform="translate(0)" fill="none" stroke="#251313" stroke-width="5"/><line y2="48.122" transform="translate(24.061)" fill="none" stroke="#251313" stroke-width="5"/></g><g transform="translate(357.51 0)"><line y2="48.122" fill="none" stroke="#251313" stroke-width="5"/><line y2="48.122" transform="translate(24.061)" fill="none" stroke="#251313" stroke-width="5"/></g><g transform="translate(285.327 12.603)"><line x2="48.122" transform="translate(0)" fill="none" stroke="#251313" stroke-width="5"/><line x2="48.122" transform="translate(0 24.061)" fill="none" stroke="#251313" stroke-width="5"/></g><g transform="translate(167.063 12.603)"><line x2="48.122" fill="none" stroke="#251313" stroke-width="5"/><line x2="48.122" transform="translate(0 24.061)" fill="none" stroke="#251313" stroke-width="5"/></g><g transform="translate(119.38 0)"><line y2="48.122" transform="translate(0)" fill="none" stroke="#251313" stroke-width="5"/><line y2="48.122" transform="translate(24.061)" fill="none" stroke="#251313" stroke-width="5"/></g><g transform="translate(47.762 12.603)"><line x2="48.122" transform="translate(0)" fill="none" stroke="#251313" stroke-width="5"/><line x2="48.122" transform="translate(0 24.061)" fill="none" stroke="#251313" stroke-width="5"/></g><g transform="translate(0 0)"><line y2="48.122" fill="none" stroke="#251313" stroke-width="5"/><line y2="48.122" transform="translate(24.061)" fill="none" stroke="#251313" stroke-width="5"/></g></g><g transform="translate(512.14 330.361) rotate(180)"><g transform="translate(48.066 0)"><g transform="translate(71.365)"><g transform="translate(120.304)"><line y2="48.122" fill="none" stroke="#251313" stroke-width="5"/><line y2="48.122" transform="translate(24.061)" fill="none" stroke="#251313" stroke-width="5"/></g><g transform="translate(240.608)"><line y2="48.122" fill="none" stroke="#251313" stroke-width="5"/><line y2="48.122" transform="translate(24.061)" fill="none" stroke="#251313" stroke-width="5"/></g><g transform="translate(168.425 12.603)"><line x2="48.122" fill="none" stroke="#251313" stroke-width="5"/><line x2="48.122" transform="translate(0 24.061)" fill="none" stroke="#251313" stroke-width="5"/></g><g transform="translate(48.122 12.603)"><line x2="48.122" fill="none" stroke="#251313" stroke-width="5"/><line x2="48.122" transform="translate(0 24.061)" fill="none" stroke="#251313" stroke-width="5"/></g><line y2="48.122" fill="none" stroke="#251313" stroke-width="5"/><line y2="48.122" transform="translate(24.061)" fill="none" stroke="#251313" stroke-width="5"/></g><g transform="translate(357.698 12.603)"><line x2="48.122" transform="translate(0)" fill="none" stroke="#251313" stroke-width="5"/><line x2="48.122" transform="translate(0 24.061)" fill="none" stroke="#251313" stroke-width="5"/></g><g transform="translate(0 12.603)"><line x2="48.122" fill="none" stroke="#251313" stroke-width="5"/><line x2="48.122" transform="translate(0 24.061)" fill="none" stroke="#251313" stroke-width="5"/></g></g><g transform="translate(478.284 0)"><line y2="48.122" fill="none" stroke="#251313" stroke-width="5"/><line y2="48.122" transform="translate(24.061)" fill="none" stroke="#251313" stroke-width="5"/></g><g transform="translate(0 0)"><line y2="48.122" fill="none" stroke="#251313" stroke-width="5"/><line y2="48.122" transform="translate(24.061)" fill="none" stroke="#251313" stroke-width="5"/></g></g><g transform="translate(0 212.248)"><g transform="translate(311.01)"><line y2="48.122" fill="none" stroke="#251313" stroke-width="5"/><line y2="48.122" transform="translate(24.061)" fill="none" stroke="#251313" stroke-width="5"/></g><g transform="translate(430.218)"><line y2="48.122" fill="none" stroke="#251313" stroke-width="5"/><line y2="48.122" transform="translate(24.061)" fill="none" stroke="#251313" stroke-width="5"/></g><g transform="translate(358.755 12.603)"><line x2="48.122" fill="none" stroke="#251313" stroke-width="5"/><line x2="48.122" transform="translate(0 24.061)" fill="none" stroke="#251313" stroke-width="5"/></g><g transform="translate(239.17 12.603)"><line x2="48.122" fill="none" stroke="#251313" stroke-width="5"/><line x2="48.122" transform="translate(0 24.061)" fill="none" stroke="#251313" stroke-width="5"/></g><g transform="translate(191.391)"><line y2="48.122" fill="none" stroke="#251313" stroke-width="5"/><line y2="48.122" transform="translate(24.061)" fill="none" stroke="#251313" stroke-width="5"/></g><g transform="translate(119.585 12.603)"><line x2="48.122" fill="none" stroke="#251313" stroke-width="5"/><line x2="48.122" transform="translate(0 24.061)" fill="none" stroke="#251313" stroke-width="5"/></g><g transform="translate(72.182)"><line y2="48.122" fill="none" stroke="#251313" stroke-width="5"/><line y2="48.122" transform="translate(24.061)" fill="none" stroke="#251313" stroke-width="5"/></g><g transform="translate(478.34 12.603)"><line x2="48.122" fill="none" stroke="#251313" stroke-width="5"/><line x2="48.122" transform="translate(0 24.061)" fill="none" stroke="#251313" stroke-width="5"/></g><g transform="translate(0 12.603)"><line x2="48.122" fill="none" stroke="#251313" stroke-width="5"/><line x2="48.122" transform="translate(0 24.061)" fill="none" stroke="#251313" stroke-width="5"/></g></g></g><g transform="translate(268 1360)" fill="none" stroke="#9da5a8" stroke-width="42"><circle cx="273.542" cy="273.542" r="273.542" stroke="none"/><circle cx="273.542" cy="273.542" r="252.542" fill="none"/></g><g transform="translate(308 1400)" fill="none" stroke="#111" stroke-width="5"><circle cx="233.431" cy="233.431" r="233.431" stroke="none"/><circle cx="233.431" cy="233.431" r="230.931" fill="none"/></g></g></svg>