<svg width="659" height="182" viewBox="0 0 659 182" fill="none" xmlns="http://www.w3.org/2000/svg">
<g clip-path="url(#clip0)">
<path d="M34.0594 98.9345C42.6155 98.9345 49.5515 91.9984 49.5515 83.4423C49.5515 74.8863 42.6155 67.9502 34.0594 67.9502C25.5033 67.9502 18.5672 74.8863 18.5672 83.4423C18.5672 91.9984 25.5033 98.9345 34.0594 98.9345Z" fill="#FFB71B" stroke="#FFB71B" stroke-width="2.72475" stroke-miterlimit="10"/>
<path d="M77.1494 98.9345C85.7054 98.9345 92.6415 91.9984 92.6415 83.4423C92.6415 74.8863 85.7054 67.9502 77.1494 67.9502C68.5933 67.9502 61.6572 74.8863 61.6572 83.4423C61.6572 91.9984 68.5933 98.9345 77.1494 98.9345Z" fill="#FFB71B" stroke="#FFB71B" stroke-width="2.72475" stroke-miterlimit="10"/>
<path d="M48.9677 79.1606H62.0465" stroke="#FFB71B" stroke-width="2.72475" stroke-miterlimit="10"/>
<path d="M34.0594 67.9502H77.1493" stroke="#FFB71B" stroke-width="2.72475" stroke-miterlimit="10"/>
<path d="M19.5793 77.9149H10.393" stroke="#FFB71B" stroke-width="2.72475" stroke-miterlimit="10"/>
<path d="M98.9863 77.9149H91.5127" stroke="#FFB71B" stroke-width="2.72475" stroke-miterlimit="10"/>
<path d="M71.2717 80.7175L80.2634 73.0104" stroke="#1A2127" stroke-width="2.72475" stroke-miterlimit="10"/>
<path d="M70.7657 86.9455L85.3625 74.4895" stroke="#1A2127" stroke-width="2.72475" stroke-miterlimit="10"/>
<path d="M22.7711 87.0623L37.368 74.6063" stroke="#1A2127" stroke-width="2.72475" stroke-miterlimit="10"/>
<path d="M37.1345 80.6397L42.4283 76.0854" stroke="#1A2127" stroke-width="2.72475" stroke-miterlimit="10"/>
<path d="M27.8703 88.5415L34.7601 82.6249" stroke="#1A2127" stroke-width="2.72475" stroke-miterlimit="10"/>
<path d="M64.8879 100.764C65.8221 102.477 68.5469 105.668 66.3282 108.432C64.1094 111.196 59.7888 108.004 57.8814 109.561C55.9741 111.118 53.7943 111.624 51.7313 110.223C49.6683 108.821 43.4013 111.819 42.1557 108.393C40.9101 104.968 44.2577 101.62 44.2577 101.62" stroke="#FFB71B" stroke-width="2.72475" stroke-miterlimit="10"/>
<path d="M36.0056 126.571C40.4431 123.34 48.3838 119.331 49.279 119.331C50.1743 119.331 52.5098 121.394 53.7165 121.394C54.8842 121.394 57.4144 119.331 58.5821 119.331C59.7499 119.331 67.8852 125.52 70.1039 127.311" stroke="#FFB71B" stroke-width="2.72475" stroke-miterlimit="10"/>
<path d="M45.1919 126.221C48.7341 127.272 59.0492 127.466 62.6692 126.221" stroke="#FFB71B" stroke-width="2.72475" stroke-miterlimit="10"/>
<path d="M38.886 129.997C45.8147 134.862 61.8907 134.278 67.4959 129.997" stroke="#FFB71B" stroke-width="2.72475" stroke-miterlimit="10"/>
<path d="M100.31 83.0531C101.322 95.7037 101.867 118.475 94.3152 131.009C86.7638 143.543 67.5348 161.253 54.456 161.253H54.3003C41.2215 161.253 21.9926 143.543 14.4412 131.009C6.8897 118.475 6.30583 95.587 8.4467 83.0531C10.6265 70.13 19.9296 63.2792 21.0584 56.8566C22.1483 50.434 27.9481 39.4571 44.3355 38.1337C60.723 36.8102 75.3198 37.6277 88.1261 52.3413C97.5071 63.2403 99.8815 78.0707 100.31 83.0531Z" stroke="#FFB71B" stroke-width="2.72475" stroke-miterlimit="10"/>
<path d="M100.699 88.0744C104.008 83.6369 106.888 81.1847 108.679 84.1819C110.43 87.1791 106.46 100.686 105.565 104.462C104.669 108.238 103.696 115.4 99.4533 115.244" stroke="#FFB71B" stroke-width="2.72475" stroke-miterlimit="10"/>
<path d="M7.74607 88.5415C5.56627 84.5711 4.00927 81.4182 2.45227 82.8584C0.895269 84.2986 1.12882 93.6406 2.45227 99.0512C3.77572 104.462 1.71269 112.947 9.06952 113.57" stroke="#FFB71B" stroke-width="2.72475" stroke-miterlimit="10"/>
<path d="M2.45227 82.8584C1.36237 67.2495 7.31789 47.5924 15.9203 39.6128C11.0158 37.7054 7.35681 34.0854 8.21316 27.546C9.84801 15.5571 33.6312 7.11039 67.5348 12.8324C101.439 18.5543 108.25 42.0261 106.032 48.4487C110.236 54.2096 113.077 62.7731 112.844 68.7286C112.688 73.3996 110.002 79.5498 107.238 82.8973" stroke="#FFB71B" stroke-width="2.72475" stroke-miterlimit="10"/>
<path d="M36.0056 117.502L34.2929 122.173" stroke="#FFB71B" stroke-width="2.72475" stroke-miterlimit="10"/>
<path d="M41.8054 115.244L39.8203 119.37" stroke="#FFB71B" stroke-width="2.72475" stroke-miterlimit="10"/>
<path d="M65.2772 115.244L67.1456 119.837" stroke="#FFB71B" stroke-width="2.72475" stroke-miterlimit="10"/>
<path d="M72.5951 121.706L73.9185 126.221" stroke="#FFB71B" stroke-width="2.72475" stroke-miterlimit="10"/>
<path d="M49.0066 113.57L48.0334 117.307" stroke="#FFB71B" stroke-width="2.72475" stroke-miterlimit="10"/>
<path d="M53.8333 113.57L53.9889 117.307" stroke="#FFB71B" stroke-width="2.72475" stroke-miterlimit="10"/>
<path d="M59.6331 113.57L60.5284 116.645" stroke="#FFB71B" stroke-width="2.72475" stroke-miterlimit="10"/>
<path d="M53.2104 144.749V158.451" stroke="#FFB71B" stroke-width="2.72475" stroke-miterlimit="10"/>
<path d="M59.0881 144.749L60.1002 155.998" stroke="#FFB71B" stroke-width="2.72475" stroke-miterlimit="10"/>
<path d="M66.2114 142.297V152.495" stroke="#FFB71B" stroke-width="2.72475" stroke-miterlimit="10"/>
<path d="M71.2716 138.093L73.2568 147.396" stroke="#FFB71B" stroke-width="2.72475" stroke-miterlimit="10"/>
<path d="M77.305 133.422L78.8231 142.725" stroke="#FFB71B" stroke-width="2.72475" stroke-miterlimit="10"/>
<path d="M83.6498 127.311V138.093" stroke="#FFB71B" stroke-width="2.72475" stroke-miterlimit="10"/>
<path d="M88.2819 125.014V131.086" stroke="#FFB71B" stroke-width="2.72475" stroke-miterlimit="10"/>
<path d="M92.2522 118.008V124.197" stroke="#FFB71B" stroke-width="2.72475" stroke-miterlimit="10"/>
<path d="M46.4764 144.749L45.1919 154.48" stroke="#FFB71B" stroke-width="2.72475" stroke-miterlimit="10"/>
<path d="M39.9759 140.935L39.1585 150.238" stroke="#FFB71B" stroke-width="2.72475" stroke-miterlimit="10"/>
<path d="M35.1103 138.054L33.4755 145.839" stroke="#FFB71B" stroke-width="2.72475" stroke-miterlimit="10"/>
<path d="M28.9602 135.719L28.1039 142.141" stroke="#FFB71B" stroke-width="2.72475" stroke-miterlimit="10"/>
<path d="M23.7832 129.763L23.2771 135.563" stroke="#FFB71B" stroke-width="2.72475" stroke-miterlimit="10"/>
<path d="M18.8008 125.053L18.3726 129.997" stroke="#FFB71B" stroke-width="2.72475" stroke-miterlimit="10"/>
<path d="M14.6358 117.307V121.706" stroke="#FFB71B" stroke-width="2.72475" stroke-miterlimit="10"/>
<path d="M21.6034 42.5321C18.2947 46.5025 18.4894 51.8352 14.5969 57.9075C10.7044 63.9798 8.36888 69.2736 7.3179 73.711" stroke="#FFB71B" stroke-width="2.72475" stroke-miterlimit="10"/>
<path d="M14.4801 46.9696C13.0399 51.1346 10.1205 57.0512 9.03061 59.6981" stroke="#FFB71B" stroke-width="2.72475" stroke-miterlimit="10"/>
<path d="M93.4978 51.2903C98.0521 55.1439 105.72 67.1328 104.28 78.1875" stroke="#FFB71B" stroke-width="2.72475" stroke-miterlimit="10"/>
<path d="M97.3125 48.9159C101.75 51.2903 107.861 59.9706 108.134 68.3784" stroke="#FFB71B" stroke-width="2.72475" stroke-miterlimit="10"/>
<path d="M28.7655 39.0288C19.7349 35.6424 12.3781 28.7137 16.6599 24.5877C23.0436 18.3986 34.4875 15.7128 43.9463 16.3356" stroke="#FFB71B" stroke-width="2.72475" stroke-miterlimit="10"/>
<path d="M33.0084 35.4088C22.4987 31.2049 20.9027 25.5219 33.0084 22.6804C41.7665 20.6173 55.2735 20.3838 55.2735 20.3838" stroke="#FFB71B" stroke-width="2.72475" stroke-miterlimit="10"/>
<path d="M40.0927 33.268C35.2271 26.3393 49.6683 24.7045 68.4301 26.9232" stroke="#FFB71B" stroke-width="2.72475" stroke-miterlimit="10"/>
<path d="M53.0158 32.1002C60.7619 31.7888 82.5988 29.609 90.4228 44.3616" stroke="#FFB71B" stroke-width="2.72475" stroke-miterlimit="10"/>
<path d="M67.1456 19.255C83.7666 22.4858 93.42 27.9742 99.4144 41.0919" stroke="#FFB71B" stroke-width="2.72475" stroke-miterlimit="10"/>
<path d="M72.4005 26.028C76.799 26.9622 85.5182 29.7648 89.216 34.319" stroke="#FFB71B" stroke-width="2.72475" stroke-miterlimit="10"/>
<path d="M572.191 101.005C580.747 101.005 587.683 94.069 587.683 85.5129C587.683 76.9568 580.747 70.0208 572.191 70.0208C563.635 70.0208 556.699 76.9568 556.699 85.5129C556.699 94.069 563.635 101.005 572.191 101.005Z" fill="#FFB71B" stroke="#FFB71B" stroke-width="2.72475" stroke-miterlimit="10"/>
<path d="M615.281 101.005C623.837 101.005 630.773 94.069 630.773 85.5129C630.773 76.9568 623.837 70.0208 615.281 70.0208C606.725 70.0208 599.789 76.9568 599.789 85.5129C599.789 94.069 606.725 101.005 615.281 101.005Z" fill="#FFB71B" stroke="#FFB71B" stroke-width="2.72475" stroke-miterlimit="10"/>
<path d="M587.099 81.2311H600.178" stroke="#FFB71B" stroke-width="2.72475" stroke-miterlimit="10"/>
<path d="M572.191 69.9818H615.281" stroke="#FFB71B" stroke-width="2.72475" stroke-miterlimit="10"/>
<path d="M557.711 79.9855H551.678" stroke="#FFB71B" stroke-width="2.72475" stroke-miterlimit="10"/>
<path d="M635.444 79.9467L629.683 79.9856" stroke="#FFB71B" stroke-width="2.72475" stroke-miterlimit="10"/>
<path d="M609.403 82.7881L618.434 75.0809" stroke="#1A2127" stroke-width="2.72475" stroke-miterlimit="10"/>
<path d="M608.936 89.0161L623.494 76.5601" stroke="#1A2127" stroke-width="2.72475" stroke-miterlimit="10"/>
<path d="M560.942 89.1329L575.5 76.6769" stroke="#1A2127" stroke-width="2.72475" stroke-miterlimit="10"/>
<path d="M575.266 82.6713L580.599 78.156" stroke="#1A2127" stroke-width="2.72475" stroke-miterlimit="10"/>
<path d="M566.002 90.612L572.931 84.6954" stroke="#1A2127" stroke-width="2.72475" stroke-miterlimit="10"/>
<path d="M631.085 38.5693C634.86 41.4498 644.008 51.6481 647.355 59.1996C650.703 66.7121 657.047 103.769 654.44 106.221C651.87 108.673 648.834 81.7371 648.523 75.7816C648.367 73.1347 645.759 60.8734 643.696 58.6936C641.633 56.5138 635.639 47.1328 631.98 44.1745" stroke="#FFB71B" stroke-width="2.59637" stroke-miterlimit="10"/>
<path d="M633.576 52.6212C639.415 89.5221 634.315 132.456 629.489 139.307C624.662 146.158 608.936 160.404 594.845 160.833C580.755 161.222 559.774 145.107 555.337 134.636C550.899 124.165 550.276 64.2598 551.055 51.687" stroke="#FFB71B" stroke-width="2.59637" stroke-miterlimit="10"/>
<path d="M614.035 127.552C614.035 127.552 606.25 118.677 603.681 118.132C601.112 117.587 599.906 119.884 595.624 119.884C592.121 119.884 592.471 118.054 588.656 118.132C584.92 118.21 574.293 127.552 574.293 127.552" stroke="#FFB71B" stroke-width="2.59637" stroke-miterlimit="10"/>
<path d="M586.593 127.552C588.034 127.396 591.926 128.447 595.78 128.642C598.816 128.797 601.813 128.019 603.526 128.175" stroke="#FFB71B" stroke-width="2.59637" stroke-miterlimit="10"/>
<path d="M575.811 130.588C577.796 131.834 587.8 137.05 595.624 136.933C603.409 136.855 609.676 132.534 612.089 130.588" stroke="#FFB71B" stroke-width="2.59637" stroke-miterlimit="10"/>
<path d="M581.183 101.044C580.249 104.158 578.419 108.401 582.234 109.024C586.048 109.646 587.761 107.077 590.291 107.233C592.821 107.389 594.573 109.919 596.052 109.958C598.426 110.036 599.75 106.805 602.591 107.077C605.433 107.35 605.511 110.425 607.768 109.374C610.026 108.323 609.209 102.835 605.55 99.2534" stroke="#FFB71B" stroke-width="2.59637" stroke-miterlimit="10"/>
<path d="M587.372 113.033V115.018" stroke="#FFB71B" stroke-width="2.59637" stroke-miterlimit="10"/>
<path d="M591.459 112.215L591.576 114.24" stroke="#FFB71B" stroke-width="2.59637" stroke-miterlimit="10"/>
<path d="M595.741 113.227V115.174" stroke="#FFB71B" stroke-width="2.59637" stroke-miterlimit="10"/>
<path d="M599.244 112.215L599.4 114.24" stroke="#FFB71B" stroke-width="2.59637" stroke-miterlimit="10"/>
<path d="M604.11 113.227V115.174" stroke="#FFB71B" stroke-width="2.59637" stroke-miterlimit="10"/>
<path d="M607.574 115.174L608.236 117.392" stroke="#FFB71B" stroke-width="2.59637" stroke-miterlimit="10"/>
<path d="M611.116 118.677L612.089 120.429" stroke="#FFB71B" stroke-width="2.59637" stroke-miterlimit="10"/>
<path d="M614.658 122.025L615.515 124.438" stroke="#FFB71B" stroke-width="2.59637" stroke-miterlimit="10"/>
<path d="M550.704 88.3934C548.096 85.1626 545.878 81.5426 543.387 82.7492C540.895 83.9559 539.377 94.2321 540.078 101.278C540.779 108.323 544.866 116.964 547.746 116.653C550.666 116.341 552.145 110.853 552.145 110.853" stroke="#FFB71B" stroke-width="2.59637" stroke-miterlimit="10"/>
<path d="M636.534 88.3934C639.142 85.1626 641.361 81.5426 643.852 82.7492C646.343 83.9559 647.861 94.2321 647.161 101.278C646.46 108.323 642.373 116.964 639.492 116.653C636.573 116.341 635.094 110.853 635.094 110.853" stroke="#FFB71B" stroke-width="2.59637" stroke-miterlimit="10"/>
<path d="M582.973 115.174L582.818 117.159" stroke="#FFB71B" stroke-width="2.59637" stroke-miterlimit="10"/>
<path d="M579.937 116.302V118.599" stroke="#FFB71B" stroke-width="2.59637" stroke-miterlimit="10"/>
<path d="M576.823 118.599V121.09" stroke="#FFB71B" stroke-width="2.59637" stroke-miterlimit="10"/>
<path d="M573.592 121.09L573.242 124.049" stroke="#FFB71B" stroke-width="2.59637" stroke-miterlimit="10"/>
<path d="M554.363 116.186L554.247 118.599" stroke="#FFB71B" stroke-width="2.59637" stroke-miterlimit="10"/>
<path d="M556.777 118.599V121.09" stroke="#FFB71B" stroke-width="2.59637" stroke-miterlimit="10"/>
<path d="M558.995 121.09V123.231" stroke="#FFB71B" stroke-width="2.59637" stroke-miterlimit="10"/>
<path d="M561.915 124.671V126.851" stroke="#FFB71B" stroke-width="2.59637" stroke-miterlimit="10"/>
<path d="M565.262 126.851V128.642" stroke="#FFB71B" stroke-width="2.59637" stroke-miterlimit="10"/>
<path d="M568.338 130.588V133.741" stroke="#FFB71B" stroke-width="2.59637" stroke-miterlimit="10"/>
<path d="M571.023 133.741V135.96" stroke="#FFB71B" stroke-width="2.59637" stroke-miterlimit="10"/>
<path d="M574.565 136.933V139.463" stroke="#FFB71B" stroke-width="2.59637" stroke-miterlimit="10"/>
<path d="M576.823 141.487V144.173" stroke="#FFB71B" stroke-width="2.59637" stroke-miterlimit="10"/>
<path d="M579.937 144.173V146.703" stroke="#FFB71B" stroke-width="2.59637" stroke-miterlimit="10"/>
<path d="M584.725 144.173V147.404" stroke="#FFB71B" stroke-width="2.59637" stroke-miterlimit="10"/>
<path d="M588.228 143.355V145.769" stroke="#FFB71B" stroke-width="2.59637" stroke-miterlimit="10"/>
<path d="M590.135 140.008V142.421" stroke="#FFB71B" stroke-width="2.59637" stroke-miterlimit="10"/>
<path d="M593.561 139.852V142.81" stroke="#FFB71B" stroke-width="2.59637" stroke-miterlimit="10"/>
<path d="M596.675 139.463V141.487" stroke="#FFB71B" stroke-width="2.59637" stroke-miterlimit="10"/>
<path d="M599.322 141.487V143.355" stroke="#FFB71B" stroke-width="2.59637" stroke-miterlimit="10"/>
<path d="M602.747 142.421V144.562" stroke="#FFB71B" stroke-width="2.59637" stroke-miterlimit="10"/>
<path d="M606.056 144.173V146.703" stroke="#FFB71B" stroke-width="2.59637" stroke-miterlimit="10"/>
<path d="M608.936 142.421V144.562" stroke="#FFB71B" stroke-width="2.59637" stroke-miterlimit="10"/>
<path d="M612.089 139.852V141.604" stroke="#FFB71B" stroke-width="2.59637" stroke-miterlimit="10"/>
<path d="M615.086 136.933V138.918" stroke="#FFB71B" stroke-width="2.59637" stroke-miterlimit="10"/>
<path d="M617.383 133.741V135.96" stroke="#FFB71B" stroke-width="2.59637" stroke-miterlimit="10"/>
<path d="M619.68 130.588V132.184" stroke="#FFB71B" stroke-width="2.59637" stroke-miterlimit="10"/>
<path d="M622.21 127.746V129.537" stroke="#FFB71B" stroke-width="2.59637" stroke-miterlimit="10"/>
<path d="M627.036 121.09V123.231" stroke="#FFB71B" stroke-width="2.59637" stroke-miterlimit="10"/>
<path d="M629.489 119.533V121.09" stroke="#FFB71B" stroke-width="2.59637" stroke-miterlimit="10"/>
<path d="M631.668 116.225V119.105" stroke="#FFB71B" stroke-width="2.59637" stroke-miterlimit="10"/>
<path d="M624.623 124.671V126.851" stroke="#FFB71B" stroke-width="2.59637" stroke-miterlimit="10"/>
<path d="M555.998 123.231V125.761" stroke="#FFB71B" stroke-width="2.59637" stroke-miterlimit="10"/>
<path d="M558.528 126.851L558.996 128.642" stroke="#FFB71B" stroke-width="2.59637" stroke-miterlimit="10"/>
<path d="M561.915 129.109V131.367" stroke="#FFB71B" stroke-width="2.59637" stroke-miterlimit="10"/>
<path d="M565.262 131.561V133.741" stroke="#FFB71B" stroke-width="2.59637" stroke-miterlimit="10"/>
<path d="M556.777 130.588V132.651" stroke="#FFB71B" stroke-width="2.59637" stroke-miterlimit="10"/>
<path d="M558.995 133.741V135.96" stroke="#FFB71B" stroke-width="2.59637" stroke-miterlimit="10"/>
<path d="M561.915 134.87V137.945" stroke="#FFB71B" stroke-width="2.59637" stroke-miterlimit="10"/>
<path d="M565.807 136.933V140.397" stroke="#FFB71B" stroke-width="2.59637" stroke-miterlimit="10"/>
<path d="M568.999 137.945V140.747" stroke="#FFB71B" stroke-width="2.59637" stroke-miterlimit="10"/>
<path d="M572.386 141.331V142.81" stroke="#FFB71B" stroke-width="2.59637" stroke-miterlimit="10"/>
<path d="M567.52 143.355V145.769" stroke="#FFB71B" stroke-width="2.59637" stroke-miterlimit="10"/>
<path d="M562.421 139.852V141.604" stroke="#FFB71B" stroke-width="2.59637" stroke-miterlimit="10"/>
<path d="M571.023 145.769V147.404" stroke="#FFB71B" stroke-width="2.59637" stroke-miterlimit="10"/>
<path d="M574.254 149.506V151.14" stroke="#FFB71B" stroke-width="2.59637" stroke-miterlimit="10"/>
<path d="M574.565 144.679V147.715" stroke="#FFB71B" stroke-width="2.59637" stroke-miterlimit="10"/>
<path d="M578.108 148.455V151.413" stroke="#FFB71B" stroke-width="2.59637" stroke-miterlimit="10"/>
<path d="M581.494 148.455V151.413" stroke="#FFB71B" stroke-width="2.59637" stroke-miterlimit="10"/>
<path d="M585.542 149.934V151.413" stroke="#FFB71B" stroke-width="2.59637" stroke-miterlimit="10"/>
<path d="M589.007 147.91V149.934" stroke="#FFB71B" stroke-width="2.59637" stroke-miterlimit="10"/>
<path d="M591.537 144.562V147.404" stroke="#FFB71B" stroke-width="2.59637" stroke-miterlimit="10"/>
<path d="M595.04 145.457V147.91" stroke="#FFB71B" stroke-width="2.59637" stroke-miterlimit="10"/>
<path d="M598.582 145.457V146.937" stroke="#FFB71B" stroke-width="2.59637" stroke-miterlimit="10"/>
<path d="M601.112 147.404V148.455" stroke="#FFB71B" stroke-width="2.59637" stroke-miterlimit="10"/>
<path d="M604.11 148.455V151.413" stroke="#FFB71B" stroke-width="2.59637" stroke-miterlimit="10"/>
<path d="M607.924 148.922V151.413" stroke="#FFB71B" stroke-width="2.59637" stroke-miterlimit="10"/>
<path d="M610.299 146.586V147.91" stroke="#FFB71B" stroke-width="2.59637" stroke-miterlimit="10"/>
<path d="M612.089 144.173V145.457" stroke="#FFB71B" stroke-width="2.59637" stroke-miterlimit="10"/>
<path d="M614.541 142.421L615.086 144.796" stroke="#FFB71B" stroke-width="2.59637" stroke-miterlimit="10"/>
<path d="M617.383 139.852V141.604" stroke="#FFB71B" stroke-width="2.59637" stroke-miterlimit="10"/>
<path d="M619.68 136.388V137.945" stroke="#FFB71B" stroke-width="2.59637" stroke-miterlimit="10"/>
<path d="M621.431 133.741V134.87" stroke="#FFB71B" stroke-width="2.59637" stroke-miterlimit="10"/>
<path d="M624.623 131.367V134.325" stroke="#FFB71B" stroke-width="2.59637" stroke-miterlimit="10"/>
<path d="M626.647 127.98V130.082" stroke="#FFB71B" stroke-width="2.59637" stroke-miterlimit="10"/>
<path d="M628.243 125.761V126.851" stroke="#FFB71B" stroke-width="2.59637" stroke-miterlimit="10"/>
<path d="M630.423 123.231V125.761" stroke="#FFB71B" stroke-width="2.59637" stroke-miterlimit="10"/>
<path d="M628.71 131.016V132.34" stroke="#FFB71B" stroke-width="2.59637" stroke-miterlimit="10"/>
<path d="M627.815 133.741V134.87" stroke="#FFB71B" stroke-width="2.59637" stroke-miterlimit="10"/>
<path d="M624.623 135.96V138.217" stroke="#FFB71B" stroke-width="2.59637" stroke-miterlimit="10"/>
<path d="M623.922 140.086V142.499" stroke="#FFB71B" stroke-width="2.59637" stroke-miterlimit="10"/>
<path d="M620.341 139.852V141.487" stroke="#FFB71B" stroke-width="2.59637" stroke-miterlimit="10"/>
<path d="M618.979 143.355V144.796" stroke="#FFB71B" stroke-width="2.59637" stroke-miterlimit="10"/>
<path d="M616.566 145.964V148.221" stroke="#FFB71B" stroke-width="2.59637" stroke-miterlimit="10"/>
<path d="M613.841 147.91V149.973" stroke="#FFB71B" stroke-width="2.59637" stroke-miterlimit="10"/>
<path d="M610.883 150.167V152.503" stroke="#FFB71B" stroke-width="2.59637" stroke-miterlimit="10"/>
<path d="M598.582 149.311V151.335" stroke="#FFB71B" stroke-width="2.59637" stroke-miterlimit="10"/>
<path d="M592.899 149.934V151.335" stroke="#FFB71B" stroke-width="2.59637" stroke-miterlimit="10"/>
<path d="M589.007 151.413V153.437" stroke="#FFB71B" stroke-width="2.59637" stroke-miterlimit="10"/>
<path d="M595.741 152.503V154.644" stroke="#FFB71B" stroke-width="2.59637" stroke-miterlimit="10"/>
<path d="M601.112 153.437V155.734" stroke="#FFB71B" stroke-width="2.59637" stroke-miterlimit="10"/>
<path d="M604.11 153.554V155.734" stroke="#FFB71B" stroke-width="2.59637" stroke-miterlimit="10"/>
<path d="M606.756 153.437V154.644" stroke="#FFB71B" stroke-width="2.59637" stroke-miterlimit="10"/>
<path d="M591.537 153.554V154.644" stroke="#FFB71B" stroke-width="2.59637" stroke-miterlimit="10"/>
<path d="M585.542 154.099V155.733" stroke="#FFB71B" stroke-width="2.59637" stroke-miterlimit="10"/>
<path d="M581.494 153.437V155.734" stroke="#FFB71B" stroke-width="2.59637" stroke-miterlimit="10"/>
<path d="M589.007 155.734V157.485" stroke="#FFB71B" stroke-width="2.59637" stroke-miterlimit="10"/>
<path d="M592.899 156.59V157.485" stroke="#FFB71B" stroke-width="2.59637" stroke-miterlimit="10"/>
<path d="M595.741 156.59V158.419" stroke="#FFB71B" stroke-width="2.59637" stroke-miterlimit="10"/>
<path d="M598.582 155.734V157.835" stroke="#FFB71B" stroke-width="2.59637" stroke-miterlimit="10"/>
<path d="M551.016 51.6093C551.522 38.8808 552.145 35.4943 558.412 31.1736C562.849 28.0986 578.964 19.1069 584.725 19.8854C590.486 20.7028 596.831 20.0411 599.906 19.7686C602.981 19.4962 610.921 22.2988 613.996 22.5712C617.072 22.8437 628.204 29.7723 629.45 33.587C631.046 38.5694 633.187 46.4712 633.576 52.5824" stroke="#FFB71B" stroke-width="2.59637" stroke-miterlimit="10"/>
<path d="M611.038 39.8928C611.661 36.8956 616.449 27.2811 620.341 26.0745C625.168 24.5953 634.977 25.9966 637.39 28.41C639.804 30.8233 639.57 44.486 641.244 52.6213C642.918 60.7566 644.669 72.3173 643.19 75.6649C641.711 79.0124 639.843 79.8299 639.142 78.6232C638.441 77.4165 640.543 70.41 640.271 67.8799C639.959 65.3108 636.807 52.9716 636.768 48.1449C636.729 43.3182 636.69 36.3506 635.133 32.4581C634.354 30.5508 629.644 26.7362 623.689 28.6824C620.614 29.6945 615.476 36.5842 614.814 38.219" fill="#1A2127"/>
<path d="M611.038 39.8928C611.661 36.8956 616.449 27.2811 620.341 26.0745C625.168 24.5953 634.977 25.9966 637.39 28.41C639.804 30.8233 639.57 44.486 641.244 52.6213C642.918 60.7566 644.669 72.3173 643.19 75.6649C641.711 79.0124 639.843 79.8299 639.142 78.6232C638.441 77.4165 640.543 70.41 640.271 67.8799C639.959 65.3108 636.807 52.9716 636.768 48.1449C636.729 43.3182 636.69 36.3506 635.133 32.4581C634.354 30.5508 629.644 26.7362 623.689 28.6824C620.614 29.6945 615.476 36.5842 614.814 38.219" stroke="#FFB71B" stroke-width="2.59637" stroke-miterlimit="10"/>
<path d="M552.845 40.7491C546.773 43.941 546.072 46.7436 544.944 51.181C543.815 55.6185 540.584 62.1968 540.74 66.6343C540.895 71.0717 540.701 78.3118 542.452 79.1292C544.243 79.9466 545.839 78.4675 545.917 76.0541C545.995 73.6408 545.566 70.6825 545.917 67.1792C546.267 63.676 546.929 52.2709 548.408 50.7918C549.887 49.3126 551.133 48.106 551.133 48.106" stroke="#FFB71B" stroke-width="2.59637" stroke-miterlimit="10"/>
<path d="M590.914 19.9632C587.566 14.7862 580.677 11.4387 573.047 11.9836C565.418 12.5286 558.84 20.3136 553.818 18.9512C548.797 17.5888 544.632 20.0022 545.917 22.9605C547.201 25.9188 561.448 23.7779 566.274 20.2746C571.101 16.7714 579.47 12.1393 584.725 19.9243" stroke="#FFB71B" stroke-width="2.59637" stroke-miterlimit="10"/>
<path d="M596.675 44.3693C596.169 28.0986 603.136 18.7955 607.73 17.4721C612.284 16.1097 622.755 18.562 625.596 19.7687C628.905 21.17 634.315 22.9216 632.369 25.4906C630.423 28.0597 623.3 22.8827 620.38 21.7928C617.967 20.8975 612.206 19.7687 609.092 23.2719C604.927 27.9818 601.307 31.524 600.373 42.8901" fill="#1A2127"/>
<path d="M596.675 44.3693C596.169 28.0986 603.136 18.7955 607.73 17.4721C612.284 16.1097 622.755 18.562 625.596 19.7687C628.905 21.17 634.315 22.9216 632.369 25.4906C630.423 28.0597 623.3 22.8827 620.38 21.7928C617.967 20.8975 612.206 19.7687 609.092 23.2719C604.927 27.9818 601.307 31.524 600.373 42.8901" stroke="#FFB71B" stroke-width="2.59637" stroke-miterlimit="10"/>
<path d="M552.806 57.5259V60.056" stroke="#FFB71B" stroke-width="2.59637" stroke-miterlimit="10"/>
<path d="M554.286 52.3099V54.2951" stroke="#FFB71B" stroke-width="2.59637" stroke-miterlimit="10"/>
<path d="M557.945 53.283L557.166 55.6963" stroke="#FFB71B" stroke-width="2.59637" stroke-miterlimit="10"/>
<path d="M555.998 58.7715V62.158" stroke="#FFB71B" stroke-width="2.59637" stroke-miterlimit="10"/>
<path d="M552.806 62.1578V64.8047" stroke="#FFB71B" stroke-width="2.59637" stroke-miterlimit="10"/>
<path d="M554.363 68.1913V70.916" stroke="#FFB71B" stroke-width="2.59637" stroke-miterlimit="10"/>
<path d="M630.423 52.3099V54.4897" stroke="#FFB71B" stroke-width="2.59637" stroke-miterlimit="10"/>
<path d="M627.036 52.3099V54.2562" stroke="#FFB71B" stroke-width="2.59637" stroke-miterlimit="10"/>
<path d="M628.087 57.0198V58.7714" stroke="#FFB71B" stroke-width="2.59637" stroke-miterlimit="10"/>
<path d="M631.668 57.8761V60.4452" stroke="#FFB71B" stroke-width="2.59637" stroke-miterlimit="10"/>
<path d="M631.435 62.6639L631.707 64.8827" stroke="#FFB71B" stroke-width="2.59637" stroke-miterlimit="10"/>
<path d="M632.836 68.1913L633.576 70.3711" stroke="#FFB71B" stroke-width="2.59637" stroke-miterlimit="10"/>
<path d="M623.845 54.4897V57.0199" stroke="#FFB71B" stroke-width="2.59637" stroke-miterlimit="10"/>
<path d="M560.552 54.4897V56.942" stroke="#FFB71B" stroke-width="2.59637" stroke-miterlimit="10"/>
<path d="M556.388 49.7019V51.6092" stroke="#FFB71B" stroke-width="2.59637" stroke-miterlimit="10"/>
<path d="M559.969 50.675V52.3099" stroke="#FFB71B" stroke-width="2.59637" stroke-miterlimit="10"/>
<path d="M552.806 49.1958V50.675" stroke="#FFB71B" stroke-width="2.59637" stroke-miterlimit="10"/>
<path d="M623.261 50.675V52.6213" stroke="#FFB71B" stroke-width="2.59637" stroke-miterlimit="10"/>
<path d="M618.59 44.3691C622.171 40.3598 634.705 29.9668 643.735 38.18C652.766 46.3932 653.35 53.9057 650.352 55.6962C647.355 57.4868 648.017 53.2829 647.355 49.1569C647.005 46.9771 643.618 32.1077 624.623 42.3839" fill="#1A2127"/>
<path d="M618.59 44.3691C622.171 40.3598 634.705 29.9668 643.735 38.18C652.766 46.3932 653.35 53.9057 650.352 55.6962C647.355 57.4868 648.017 53.2829 647.355 49.1569C647.005 46.9771 643.618 32.1077 624.623 42.3839" stroke="#FFB71B" stroke-width="2.59637" stroke-miterlimit="10"/>
<path d="M590.174 47.6389C588.578 38.9586 588.656 27.5925 595.741 17.1606C599.672 11.3608 601.774 17.0439 599.166 19.7686C596.441 22.6101 593.483 25.257 592.588 43.0068" fill="#1A2127"/>
<path d="M590.174 47.6389C588.578 38.9586 588.656 27.5925 595.741 17.1606C599.672 11.3608 601.774 17.0439 599.166 19.7686C596.441 22.6101 593.483 25.257 592.588 43.0068" stroke="#FFB71B" stroke-width="2.59637" stroke-miterlimit="10"/>
<path d="M581.494 38.5693C581.494 28.4877 588.851 15.876 592.276 14.3579C599.361 11.205 608.625 17.7055 611.194 15.2921C613.724 12.8788 621.12 9.10306 623.416 10.193C625.713 11.2829 624.078 13.1902 620.341 14.5136C616.604 15.8371 612.79 20.0021 609.092 19.7296C605.394 19.4571 600.606 14.3579 595.78 17.1216C590.953 19.9242 585.97 29.889 585.97 41.0605" fill="#1A2127"/>
<path d="M581.494 38.5693C581.494 28.4877 588.851 15.876 592.276 14.3579C599.361 11.205 608.625 17.7055 611.194 15.2921C613.724 12.8788 621.12 9.10306 623.416 10.193C625.713 11.2829 624.078 13.1902 620.341 14.5136C616.604 15.8371 612.79 20.0021 609.092 19.7296C605.394 19.4571 600.606 14.3579 595.78 17.1216C590.953 19.9242 585.97 29.889 585.97 41.0605" stroke="#FFB71B" stroke-width="2.59637" stroke-miterlimit="10"/>
<path d="M582.857 49.1959C582.662 41.6055 582.545 20.0411 578.224 18.1337C573.904 16.2264 561.565 26.2301 564.367 27.5536C567.831 29.2274 572.658 21.7927 574.332 21.7927C576.006 21.7927 578.964 29.3441 579.237 45.6537" fill="#1A2127"/>
<path d="M582.857 49.1959C582.662 41.6055 582.545 20.0411 578.224 18.1337C573.904 16.2264 561.565 26.2301 564.367 27.5536C567.831 29.2274 572.658 21.7927 574.332 21.7927C576.006 21.7927 578.964 29.3441 579.237 45.6537" stroke="#FFB71B" stroke-width="2.59637" stroke-miterlimit="10"/>
<path d="M604.11 41.7223C607.885 27.1644 611.972 22.5323 620.302 21.7927C628.632 21.0531 628.593 24.8678 624.428 25.4906C620.302 26.1134 609.52 23.5443 606.718 45.6537" fill="#1A2127"/>
<path d="M604.11 41.7223C607.885 27.1644 611.972 22.5323 620.302 21.7927C628.632 21.0531 628.593 24.8678 624.428 25.4906C620.302 26.1134 609.52 23.5443 606.718 45.6537" stroke="#FFB71B" stroke-width="2.59637" stroke-miterlimit="10"/>
<path d="M610.299 45.6147C614.541 40.2431 628.477 24.4396 633.615 28.0596C638.714 31.6796 641.633 36.0003 645.214 35.8056C648.834 35.611 652.96 36.117 651.754 38.5304C650.547 40.9437 645.409 43.0457 640.271 37.713C635.133 32.3802 632.564 29.928 628.944 31.991C624.857 34.3265 614.386 44.1745 613.841 46.7825" fill="#1A2127"/>
<path d="M610.299 45.6147C614.541 40.2431 628.477 24.4396 633.615 28.0596C638.714 31.6796 641.633 36.0003 645.214 35.8056C648.834 35.611 652.96 36.117 651.754 38.5304C650.547 40.9437 645.409 43.0457 640.271 37.713C635.133 32.3802 632.564 29.928 628.944 31.991C624.857 34.3265 614.386 44.1745 613.841 46.7825" stroke="#FFB71B" stroke-width="2.59637" stroke-miterlimit="10"/>
<path d="M622.21 47.6389C625.012 45.0309 637.663 35.105 655.062 67.6074C660.823 78.3118 657.437 76.9105 653.778 72.9012C650.119 68.8919 636.456 38.7251 625.985 50.675" fill="#1A2127"/>
<path d="M622.21 47.6389C625.012 45.0309 637.663 35.105 655.062 67.6074C660.823 78.3118 657.437 76.9105 653.778 72.9012C650.119 68.8919 636.456 38.7251 625.985 50.675" stroke="#FFB71B" stroke-width="2.59637" stroke-miterlimit="10"/>
<path d="M563.628 46.8214C559.307 43.5128 552.884 36.9734 550.276 38.5693C547.318 40.3988 553.39 42.5786 557.477 46.8214" fill="#1A2127"/>
<path d="M563.628 46.8214C559.307 43.5128 552.884 36.9734 550.276 38.5693C547.318 40.3988 553.39 42.5786 557.477 46.8214" stroke="#FFB71B" stroke-width="2.59637" stroke-miterlimit="10"/>
<path d="M563.628 40.36C560.786 36.4286 559.54 34.0153 554.286 36.234C546.773 39.3869 534.59 56.1246 533.539 69.943C532.76 79.8689 536.964 98.0079 535.602 106.065C534.239 114.123 539.883 109.685 539.883 101.239C539.883 92.6752 537.431 76.716 537.47 67.4907C537.509 63.7539 548.875 44.6028 551.483 42.3063C554.247 39.854 556.816 38.4916 563.589 45.9263" fill="#1A2127"/>
<path d="M563.628 40.36C560.786 36.4286 559.54 34.0153 554.286 36.234C546.773 39.3869 534.59 56.1246 533.539 69.943C532.76 79.8689 536.964 98.0079 535.602 106.065C534.239 114.123 539.883 109.685 539.883 101.239C539.883 92.6752 537.431 76.716 537.47 67.4907C537.509 63.7539 548.875 44.6028 551.483 42.3063C554.247 39.854 556.816 38.4916 563.589 45.9263" stroke="#FFB71B" stroke-width="2.59637" stroke-miterlimit="10"/>
<path d="M574.527 47.6389C575.967 42.0337 574.41 28.0986 573.437 22.9994C573.437 22.9994 573.203 21.0531 571.062 20.0411C568.921 19.029 557.906 21.2478 554.324 21.2478C550.782 21.2478 547.396 27.2811 544.165 31.1736C540.934 35.0661 539.533 50.2469 539.728 52.6213C539.922 54.9568 542.958 61.5351 544.905 59.7446C546.851 57.9151 543.776 51.6871 543.387 47.6389C542.997 43.5907 548.836 32.536 551.055 28.2932C553.273 24.0504 567.364 21.131 569.038 25.1013C571.179 30.1227 570.05 41.7223 569.038 44.4081" fill="#1A2127"/>
<path d="M574.527 47.6389C575.967 42.0337 574.41 28.0986 573.437 22.9994C573.437 22.9994 573.203 21.0531 571.062 20.0411C568.921 19.029 557.906 21.2478 554.324 21.2478C550.782 21.2478 547.396 27.2811 544.165 31.1736C540.934 35.0661 539.533 50.2469 539.728 52.6213C539.922 54.9568 542.958 61.5351 544.905 59.7446C546.851 57.9151 543.776 51.6871 543.387 47.6389C542.997 43.5907 548.836 32.536 551.055 28.2932C553.273 24.0504 567.364 21.131 569.038 25.1013C571.179 30.1227 570.05 41.7223 569.038 44.4081" stroke="#FFB71B" stroke-width="2.59637" stroke-miterlimit="10"/>
<path d="M567.831 32.1078C563.277 26.8918 552.767 15.4868 534.901 39.8927C525.014 53.3997 526.221 62.9753 528.868 60.4451C531.514 57.915 542.997 33.6258 549.031 32.1467C555.064 30.6675 561.915 29.4998 567.559 38.5304" fill="#1A2127"/>
<path d="M567.831 32.1078C563.277 26.8918 552.767 15.4868 534.901 39.8927C525.014 53.3997 526.221 62.9753 528.868 60.4451C531.514 57.915 542.997 33.6258 549.031 32.1467C555.064 30.6675 561.915 29.4998 567.559 38.5304" stroke="#FFB71B" stroke-width="2.59637" stroke-miterlimit="10"/>
<path d="M550.743 101.55C543.464 99.9541 549.537 92.9865 547.396 89.7557C545.917 87.4981 544.204 87.5759 544.009 90.8067C543.815 93.9985 542.725 106.532 546.033 108.089" stroke="#FFB71B" stroke-width="2.59637" stroke-miterlimit="10"/>
<path d="M635.911 100.694C639.415 99.2535 639.998 96.4898 639.259 92.8698C638.519 89.2497 641.01 87.4592 642.139 88.588C643.307 89.6779 644.475 99.993 642.139 105.326" stroke="#FFB71B" stroke-width="2.59637" stroke-miterlimit="10"/>
<path d="M377.637 102.606C386.193 102.606 393.129 95.6703 393.129 87.1142C393.129 78.5581 386.193 71.6221 377.637 71.6221C369.08 71.6221 362.144 78.5581 362.144 87.1142C362.144 95.6703 369.08 102.606 377.637 102.606Z" fill="#FFB71B" stroke="#FFB71B" stroke-width="2.72475" stroke-miterlimit="10"/>
<path d="M420.726 102.606C429.283 102.606 436.219 95.6703 436.219 87.1142C436.219 78.5581 429.283 71.6221 420.726 71.6221C412.17 71.6221 405.234 78.5581 405.234 87.1142C405.234 95.6703 412.17 102.606 420.726 102.606Z" fill="#FFB71B" stroke="#FFB71B" stroke-width="2.72475" stroke-miterlimit="10"/>
<path d="M392.506 82.8713H405.585" stroke="#FFB71B" stroke-width="2.72475" stroke-miterlimit="10"/>
<path d="M377.637 71.6221H420.726" stroke="#FFB71B" stroke-width="2.72475" stroke-miterlimit="10"/>
<path d="M414.849 84.4283L423.84 76.7212" stroke="#1A2127" stroke-width="2.72475" stroke-miterlimit="10"/>
<path d="M414.343 90.6563L428.901 78.2003" stroke="#1A2127" stroke-width="2.72475" stroke-miterlimit="10"/>
<path d="M366.348 90.7731L380.945 78.3171" stroke="#1A2127" stroke-width="2.72475" stroke-miterlimit="10"/>
<path d="M380.712 84.3116L386.005 79.7573" stroke="#1A2127" stroke-width="2.72475" stroke-miterlimit="10"/>
<path d="M371.447 92.2523L378.337 86.3357" stroke="#1A2127" stroke-width="2.72475" stroke-miterlimit="10"/>
<path d="M437.776 95.0159C437.386 98.558 436.841 102.1 436.102 105.642C431.742 125.806 427.032 130.749 418.469 139.001C412.903 144.373 410.45 148.732 401.498 148.46C390.637 148.148 387.523 141.414 382.969 138.573C374.094 133.007 365.297 120.161 363.662 107.277C363.195 103.735 362.767 99.8815 362.339 95.989" stroke="#FFB71B" stroke-width="2.72475" stroke-miterlimit="10"/>
<path d="M383.787 119.889C388.769 120.045 394.919 116.503 397.41 116.541C399.902 116.58 400.096 117.865 402.276 117.943C404.456 118.021 404.923 116.892 406.519 116.658C408.115 116.425 413.097 120.356 415.861 120.317" stroke="#FFB71B" stroke-width="2.72475" stroke-miterlimit="10"/>
<path d="M386.784 122.108C388.847 123.665 395.931 127.557 402.393 128.141C407.258 128.569 412.63 125.183 414.031 123.665" stroke="#FFB71B" stroke-width="2.72475" stroke-miterlimit="10"/>
<path d="M404.65 79.407C404.495 84.9733 404.806 92.9918 406.947 97.3514" stroke="#FFB71B" stroke-width="2.72475" stroke-miterlimit="10"/>
<path d="M389.898 68.002C383.826 67.0678 375.457 63.9149 372.382 66.1336C369.307 68.3523 366.582 71.2717 366.582 71.2717" stroke="#FFB71B" stroke-width="2.72475" stroke-miterlimit="10"/>
<path d="M409.866 67.5348C415.238 67.1456 422.79 65.0436 425.32 66.9899C427.85 68.9361 430.03 71.4662 430.03 71.4662" stroke="#FFB71B" stroke-width="2.72475" stroke-miterlimit="10"/>
<path d="M453.618 95.444C467.008 94.8212 481.955 87.7369 482.462 70.2206C483.357 39.8981 427.85 33.0084 401.381 33.3587C382.658 33.6312 309.907 36.0056 309.012 69.3254C308.506 87.4644 324.387 97.6238 341.942 97.5071" stroke="#FFB71B" stroke-width="2.72475" stroke-miterlimit="10"/>
<path d="M349.377 66.5228C359.03 56.2076 384.371 44.3745 405.818 45.9704C427.305 47.5663 439.099 51.4199 446.651 62.747" stroke="#FFB71B" stroke-width="2.72475" stroke-miterlimit="10"/>
<path d="M433.883 36.2782C434.233 27.4422 434.35 18.1002 430.652 12.1836C428.317 8.44679 407.142 1.47921 396.827 1.36244C384.643 1.24566 365.959 10.3541 361.132 17.4385C357.824 22.2652 358.524 29.3884 359.614 37.5627" stroke="#FFB71B" stroke-width="2.72475" stroke-miterlimit="10"/>
<path d="M404.573 107.628C402.782 109.068 400.836 108.64 399.24 107.316C397.955 106.226 395.815 107.433 394.841 106.499C394.18 105.876 393.44 105.292 394.958 102.061" stroke="#FFB71B" stroke-width="2.72475" stroke-miterlimit="10"/>
<path d="M396.982 121.057C398.773 123.237 404.767 123.82 406.48 121.757" stroke="#FFB71B" stroke-width="2.72475" stroke-miterlimit="10"/>
<path d="M408.777 101.711C409.438 103.813 409.944 105.72 408.66 106.187" stroke="#FFB71B" stroke-width="2.72475" stroke-miterlimit="10"/>
<path d="M366.037 54.9232C363.273 67.9631 361.054 108.484 362.534 120.084C364.363 134.019 381.334 136.977 382.697 156.946C383.67 171.036 373.043 179.133 362.028 178.899C342.293 178.51 329.914 153.909 333.223 130.593C338.439 93.9261 354.671 75.787 354.554 61.8519" stroke="#FFB71B" stroke-width="2.72475" stroke-miterlimit="10"/>
<path d="M429.757 50.0966C433.494 60.1392 441.824 109.924 437.386 121.407C432.949 132.89 421.077 137.911 421.388 157.841C421.622 172.321 434.817 187.852 456.499 172.243C478.141 156.634 466.814 118.332 455.487 98.7139C448.091 85.8686 441.318 69.7926 441.59 56.7527" stroke="#FFB71B" stroke-width="2.72475" stroke-miterlimit="10"/>
<path d="M359.147 32.0742C372.966 26.6636 412.28 24.367 434.039 30.1669" stroke="#FFB71B" stroke-width="2.72475" stroke-miterlimit="10"/>
<path d="M358.369 59.2828C359.381 69.5201 351.557 98.7528 346.652 110.547" stroke="#FFB71B" stroke-width="2.72475" stroke-miterlimit="10"/>
<path d="M355.761 105.292C353.153 120.706 354.32 140.597 366.621 161.111" stroke="#FFB71B" stroke-width="2.72475" stroke-miterlimit="10"/>
<path d="M440.812 79.407C454.513 110.236 461.014 130.749 456.109 149.667" stroke="#FFB71B" stroke-width="2.72475" stroke-miterlimit="10"/>
<path d="M435.09 138.145C429.679 152.08 429.017 162.512 430.302 168.389" stroke="#FFB71B" stroke-width="2.72475" stroke-miterlimit="10"/>
<path d="M341.748 132.89C340.463 144.49 341.436 160.838 346.652 172.866" stroke="#FFB71B" stroke-width="2.72475" stroke-miterlimit="10"/>
<path d="M445.016 111.987C449.259 127.09 449.57 142.543 446.651 157.841" stroke="#FFB71B" stroke-width="2.72475" stroke-miterlimit="10"/>
<path d="M437.114 53.483C436.18 59.2829 437.581 64.8102 438.515 69.2866" stroke="#FFB71B" stroke-width="2.72475" stroke-miterlimit="10"/>
<path d="M202.432 105.255C200.096 108.992 200.875 114.013 203.716 113.546C207.375 112.923 209.283 115.22 211.852 115.22C214.421 115.22 214.576 112.339 219.247 113.546C222.712 114.402 222.517 108.33 220.337 105.255" stroke="#FFB71B" stroke-width="2.72475" stroke-miterlimit="10"/>
<path d="M192.895 127.053C198.345 128.532 206.558 126.352 210.606 126.352C214.615 126.352 224.58 129.544 228.823 128.182" stroke="#FFB71B" stroke-width="2.72475" stroke-miterlimit="10"/>
<path d="M199.24 132.541C202.626 137.135 217.106 137.757 222.906 132.97" stroke="#FFB71B" stroke-width="2.72475" stroke-miterlimit="10"/>
<path d="M250.465 62.0483C250.154 71.001 255.876 86.5321 255.876 96.1076C255.876 105.683 247.779 123.122 243.965 135.694C240.15 148.267 219.481 155.079 211.229 155.079C202.977 155.079 182.346 148.267 178.493 135.694C174.678 123.122 166.582 105.722 166.582 96.1076C166.582 86.5321 173.043 70.6896 171.992 62.0483C170.941 53.4069 176.702 46.6729 188.652 42.0408C201.731 36.9806 224.969 44.1817 231.197 45.7387C237.425 47.2957 250.816 52.3949 250.465 62.0483Z" stroke="#FFB71B" stroke-width="2.72475" stroke-miterlimit="10"/>
<path d="M166.66 94.0834C164.324 90.8137 162.845 88.2836 160.51 88.9064C158.174 89.5292 158.174 100.272 159.225 106.189C160.276 112.106 164.713 117.633 166.66 117.633C168.606 117.633 170.124 115.998 170.941 113.935" stroke="#FFB71B" stroke-width="2.72475" stroke-miterlimit="10"/>
<path d="M256.109 94.0834C258.445 90.8137 259.924 88.2836 262.259 88.9064C264.595 89.5292 264.595 100.272 263.544 106.189C262.493 112.106 258.056 117.633 256.109 117.633C254.163 117.633 252.645 115.998 251.828 113.935" stroke="#FFB71B" stroke-width="2.72475" stroke-miterlimit="10"/>
<path d="M167.321 88.7896C164.363 83.7683 165.219 70.3781 163.273 64.6172C161.366 58.8563 156.384 50.7599 158.524 44.3762C160.665 37.9925 159.03 29.468 162.65 28.1834C166.27 26.8989 172.849 27.7553 177.092 21.7997C181.334 15.8442 182.191 11.9906 187.952 10.745C193.713 9.46052 200.486 10.9397 205.273 7.98138C210.1 4.98415 217.574 8.176 218.625 5.64588C219.676 3.07683 225.514 -1.39955 228.784 -0.971371C232.054 -0.543196 232.287 6.4633 234.934 7.98138C237.581 9.49945 254.786 18.2186 258.017 25.0305C261.247 31.8424 261.247 36.0852 260.158 38.4596C262.727 41.4569 264.206 48.0352 258.017 58.7006C257.394 63.177 260.819 73.4143 255.175 88.8286" stroke="#FFB71B" stroke-width="2.72475" stroke-miterlimit="10"/>
<path d="M186.706 39.0436C183.942 33.0881 185.655 25.1863 188.613 21.7998C191.572 18.4133 191.805 16.0389 191.182 14.7544" stroke="#FFB71B" stroke-width="2.72475" stroke-miterlimit="10"/>
<path d="M199.24 34.8006C198.422 29.4679 198.345 23.3178 210.178 23.3178C222.05 23.3178 229.173 16.8951 226.487 5.17871" stroke="#FFB71B" stroke-width="2.72475" stroke-miterlimit="10"/>
<path d="M204.728 34.8007C207.998 30.1297 216.717 36.5134 222.906 27.7553C228.122 20.3985 239.099 13.7034 247.39 19.8925" stroke="#FFB71B" stroke-width="2.72475" stroke-miterlimit="10"/>
<path d="M212.28 37.9925C220.96 36.5133 232.248 34.5671 238.866 29.7015C245.483 24.8358 255.214 30.7524 255.876 34.8006" stroke="#FFB71B" stroke-width="2.72475" stroke-miterlimit="10"/>
<path d="M227.383 42.0408C235.051 38.8489 247.624 35.8517 252.723 42.0408" stroke="#FFB71B" stroke-width="2.72475" stroke-miterlimit="10"/>
<path d="M242.291 47.1399C247.624 49.2808 252.956 50.1371 256.771 48.1909" stroke="#FFB71B" stroke-width="2.72475" stroke-miterlimit="10"/>
<path d="M180.517 40.2502C178.182 36.0853 177.948 29.2734 180.517 23.3179" stroke="#FFB71B" stroke-width="2.72475" stroke-miterlimit="10"/>
<path d="M173.355 32.9323C167.127 34.606 163.507 42.897 162.689 47.1788" stroke="#FFB71B" stroke-width="2.72475" stroke-miterlimit="10"/>
<path d="M175.651 42.0408C171.175 42.2354 166.465 47.3735 166.465 58.8564" stroke="#FFB71B" stroke-width="2.72475" stroke-miterlimit="10"/>
<path d="M167.555 102.919C165.219 98.482 163.312 94.8619 161.794 95.0566" stroke="#FFB71B" stroke-width="2.72475" stroke-miterlimit="10"/>
<path d="M254.864 103.231C256.732 98.988 260.664 98.1705 260.664 98.1705" stroke="#FFB71B" stroke-width="2.72475" stroke-miterlimit="10"/>
<path d="M253.424 82.2891H246.845" stroke="#FFB71B" stroke-width="2.72475" stroke-miterlimit="10"/>
<path d="M189.392 103.309C197.948 103.309 204.884 96.3726 204.884 87.8165C204.884 79.2604 197.948 72.3243 189.392 72.3243C180.836 72.3243 173.9 79.2604 173.9 87.8165C173.9 96.3726 180.836 103.309 189.392 103.309Z" fill="#FFB71B" stroke="#FFB71B" stroke-width="2.72475" stroke-miterlimit="10"/>
<path d="M232.482 103.309C241.038 103.309 247.974 96.3726 247.974 87.8165C247.974 79.2604 241.038 72.3243 232.482 72.3243C223.926 72.3243 216.99 79.2604 216.99 87.8165C216.99 96.3726 223.926 103.309 232.482 103.309Z" fill="#FFB71B" stroke="#FFB71B" stroke-width="2.72475" stroke-miterlimit="10"/>
<path d="M204.3 83.5348H217.379" stroke="#FFB71B" stroke-width="2.72475" stroke-miterlimit="10"/>
<path d="M189.392 72.3243H232.482" stroke="#FFB71B" stroke-width="2.72475" stroke-miterlimit="10"/>
<path d="M174.912 82.2891H168.84" stroke="#FFB71B" stroke-width="2.72475" stroke-miterlimit="10"/>
<path d="M226.604 85.0918L235.596 77.3846" stroke="#1A2127" stroke-width="2.72475" stroke-miterlimit="10"/>
<path d="M226.098 91.3198L240.695 78.8638" stroke="#1A2127" stroke-width="2.72475" stroke-miterlimit="10"/>
<path d="M178.104 91.4366L192.701 78.9806" stroke="#1A2127" stroke-width="2.72475" stroke-miterlimit="10"/>
<path d="M192.467 85.0139L197.761 80.4597" stroke="#1A2127" stroke-width="2.72475" stroke-miterlimit="10"/>
<path d="M183.203 92.9156L190.093 86.999" stroke="#1A2127" stroke-width="2.72475" stroke-miterlimit="10"/>
<path d="M210.84 140.988V146.515" stroke="#FFB71B" stroke-width="2.72475" stroke-miterlimit="10"/>
<path d="M214.148 140.988L214.576 144.958" stroke="#FFB71B" stroke-width="2.72475" stroke-miterlimit="10"/>
<path d="M207.687 140.988L206.714 144.686" stroke="#FFB71B" stroke-width="2.72475" stroke-miterlimit="10"/>
<path d="M205.857 118.411V121.448" stroke="#FFB71B" stroke-width="2.72475" stroke-miterlimit="10"/>
<path d="M201.03 119.735V122.966" stroke="#FFB71B" stroke-width="2.72475" stroke-miterlimit="10"/>
<path d="M196.282 120.28V123.355" stroke="#FFB71B" stroke-width="2.72475" stroke-miterlimit="10"/>
<path d="M211.073 118.567V121.759" stroke="#FFB71B" stroke-width="2.72475" stroke-miterlimit="10"/>
<path d="M216.133 118.957L216.172 121.759" stroke="#FFB71B" stroke-width="2.72475" stroke-miterlimit="10"/>
<path d="M220.298 119.735L220.143 122.615" stroke="#FFB71B" stroke-width="2.72475" stroke-miterlimit="10"/>
<path d="M224.93 120.514L224.736 123.005" stroke="#FFB71B" stroke-width="2.72475" stroke-miterlimit="10"/>
<path d="M228.784 122.226V124.951" stroke="#FFB71B" stroke-width="2.72475" stroke-miterlimit="10"/>
<path d="M191.727 121.175V124.562" stroke="#FFB71B" stroke-width="2.72475" stroke-miterlimit="10"/>
<path d="M190.521 35.6571C190.093 30.7525 190.093 21.6051 200.953 18.6079C211.813 15.6107 217.106 15.1825 219.053 10.9397" stroke="#FFB71B" stroke-width="2.72475" stroke-miterlimit="10"/>
</g>
<defs>
<clipPath id="clip0">
<rect width="659" height="181.974" fill="white"/>
</clipPath>
</defs>
</svg>
