<svg xmlns="http://www.w3.org/2000/svg" width="180.1" height="179.95" viewBox="0 0 180.1 179.95"><g transform="translate(0.05 -0.05)"><path d="M91,180a16.382,16.382,0,0,1-8.3-2.2L72.6,172a13.567,13.567,0,0,0-6.8-1.8H54.1A16.63,16.63,0,0,1,39.8,162l-6.2-10.6a14.36,14.36,0,0,0-4.9-4.9l-10.6-6.2A16.661,16.661,0,0,1,9.9,126V114.3a13.567,13.567,0,0,0-1.8-6.8L2.2,97.3a16.434,16.434,0,0,1,0-16.6L8,70.6a13.567,13.567,0,0,0,1.8-6.8V52.5a16.713,16.713,0,0,1,8.7-14.6l10-5.4a13.569,13.569,0,0,0,5.2-4.9l6-9.8A16.655,16.655,0,0,1,53.9,9.9H65.8a13.567,13.567,0,0,0,6.8-1.8L82.7,2.3a16.434,16.434,0,0,1,16.6,0h0L109.4,8a13.567,13.567,0,0,0,6.8,1.8h11.5a16.605,16.605,0,0,1,14.5,8.5l5.2,9.1a13.012,13.012,0,0,0,5.2,5.2l9.1,5.2a16.69,16.69,0,0,1,8.5,14.5V63.8a13.567,13.567,0,0,0,1.8,6.8l5.8,10.1a16.434,16.434,0,0,1,0,16.6L172,107.4a13.567,13.567,0,0,0-1.8,6.8v11.9a16.781,16.781,0,0,1-7.9,14.2l-9.8,6a14.41,14.41,0,0,0-4.9,5.2l-5.4,10a16.609,16.609,0,0,1-14.6,8.8H116.3a13.567,13.567,0,0,0-6.8,1.8l-10.1,5.8A17.732,17.732,0,0,1,91,180ZM53.9,12.9a13.639,13.639,0,0,0-11.6,6.5l-6,9.8A15.561,15.561,0,0,1,30,35.1L20,40.5a13.732,13.732,0,0,0-7.2,12V63.8a17.155,17.155,0,0,1-2.2,8.3L4.8,82.2a13.744,13.744,0,0,0,0,13.6l5.8,10.1a16.122,16.122,0,0,1,2.2,8.3v11.7a13.938,13.938,0,0,0,6.7,11.8l10.6,6.2a16.44,16.44,0,0,1,6,6l6.2,10.6a13.476,13.476,0,0,0,11.8,6.7H65.8a17.155,17.155,0,0,1,8.3,2.2l10.1,5.8a13.744,13.744,0,0,0,13.6,0l10.1-5.8a16.122,16.122,0,0,1,8.3-2.2h11.3a13.537,13.537,0,0,0,12-7.2l5.4-10a15.806,15.806,0,0,1,6-6.3l9.8-6a13.767,13.767,0,0,0,6.5-11.6V114.2a17.155,17.155,0,0,1,2.2-8.3l5.8-10.1a13.744,13.744,0,0,0,0-13.6l-5.8-10.1a16.122,16.122,0,0,1-2.2-8.3V52.3a13.822,13.822,0,0,0-6.9-11.9l-9.1-5.2a17.3,17.3,0,0,1-6.3-6.3l-5.2-9.1a13.613,13.613,0,0,0-11.9-6.9H116.3a17.155,17.155,0,0,1-8.3-2.2L97.8,4.8a13.744,13.744,0,0,0-13.6,0L74.1,10.6a16.122,16.122,0,0,1-8.3,2.2H53.9Z" fill="#fff"/><path d="M98,7.9l9.5,5.5a14.878,14.878,0,0,0,7.2,1.9h11.1a14.414,14.414,0,0,1,12.5,7.3l4.9,8.7a14.009,14.009,0,0,0,5.4,5.4l8.7,4.9a14.414,14.414,0,0,1,7.3,12.5v11a13.855,13.855,0,0,0,1.9,7.2l5.5,9.5a14.083,14.083,0,0,1,0,14.3l-5.5,9.5a14.878,14.878,0,0,0-1.9,7.2v11.3a14.221,14.221,0,0,1-6.9,12.2l-9.3,5.7a13.925,13.925,0,0,0-5.1,5.4l-5.1,9.4a14.532,14.532,0,0,1-12.6,7.6H114.8a13.855,13.855,0,0,0-7.2,1.9l-9.5,5.5a14.083,14.083,0,0,1-14.3,0l-9.5-5.5a14.878,14.878,0,0,0-7.2-1.9H55.9a14.4,14.4,0,0,1-12.4-7.1l-5.8-10a13.158,13.158,0,0,0-5.1-5.1l-10-5.8A14.4,14.4,0,0,1,15.5,124V112.9a13.855,13.855,0,0,0-1.9-7.2L8.1,96.2A13.9,13.9,0,0,1,7.9,82l5.5-9.5a14.878,14.878,0,0,0,1.9-7.2v-11a14.218,14.218,0,0,1,7.6-12.6l9.4-5.1a13.964,13.964,0,0,0,5.4-5.1l5.7-9.3a14.346,14.346,0,0,1,12.2-6.9H67a13.855,13.855,0,0,0,7.2-1.9l9.5-5.5A14.57,14.57,0,0,1,98,7.9Z" fill="#da6099"/><path d="M154.1,90.1a7.287,7.287,0,0,1-4.7,3.5l-.4.1-.1-.4a4.529,4.529,0,0,1-.3-1.6,7.568,7.568,0,0,1-.1,1.5l-.1.4-.4-.1a7.22,7.22,0,0,1-6.4-8c0-.2.1-.5.1-.7l.1-.4.4.1a7.418,7.418,0,0,1,5.1,2.9,7.065,7.065,0,0,1,1.4,4.2,7.617,7.617,0,0,1,.9-4.2,7.287,7.287,0,0,1,4.7-3.5l.4-.1.1.4A8.06,8.06,0,0,1,154.1,90.1Zm-5.5-10.8-.4.2-.2-.4a3.506,3.506,0,0,1-.6-1.4,6.752,6.752,0,0,1,.2,1.4v.4h-1.1a7.17,7.17,0,0,1-7.3-7.1h0V72h1.1a7.171,7.171,0,0,1,7.1,5.6,7.854,7.854,0,0,1,0-4.3,7.348,7.348,0,0,1,3.9-4.4l.4-.2.2.4a7.218,7.218,0,0,1-2.6,9.9A4.874,4.874,0,0,0,148.6,79.3Zm-4.3-11.8-.4-.1a7.261,7.261,0,0,1-4.9-9c.1-.2.1-.4.2-.6l.2-.4.4.1a7.261,7.261,0,0,1,4.9,9,6.37,6.37,0,0,0-.2.7ZM107.7,89.6l2.9,13.2c1.1,5-20.6,13.8-20.6,13.8s-21.7-8.7-20.6-13.7l2.9-13.2L62,84.5a2.848,2.848,0,0,1-1.3-3.7A3.25,3.25,0,0,1,62,79.5L87.4,67a5.933,5.933,0,0,1,5.2,0L118,79.6a2.817,2.817,0,0,1,1.3,3.7,3.25,3.25,0,0,1-1.3,1.3ZM36.2,67.4l-.4.1-.1-.4a7.186,7.186,0,0,1,4.1-9.4,1.445,1.445,0,0,1,.7-.2l.4-.1.1.4a7.186,7.186,0,0,1-4.1,9.4A6.374,6.374,0,0,0,36.2,67.4ZM39.9,72H41v.4a7.085,7.085,0,0,1-7.2,7.1H32.7v-.4a5.9,5.9,0,0,1,.2-1.4c-.2.5-.4,1-.6,1.4l-.2.4-.4-.2a7.237,7.237,0,0,1-3.5-9.6l.3-.6.2-.4.4.2A8.031,8.031,0,0,1,33,73.3a7.854,7.854,0,0,1,0,4.3A6.819,6.819,0,0,1,39.9,72ZM30.7,87.5a7.617,7.617,0,0,1,.9,4.2A7.065,7.065,0,0,1,33,87.5a7.215,7.215,0,0,1,5.1-2.9l.4-.1.1.4A7.342,7.342,0,0,1,33,93.5c-.2,0-.4.1-.7.1l-.4.1-.1-.4a7.569,7.569,0,0,1-.1-1.5,4.529,4.529,0,0,1-.3,1.6l-.1.4-.4-.1a7.2,7.2,0,0,1-5.5-8.6,2.544,2.544,0,0,1,.2-.7l.1-.4H26a6.977,6.977,0,0,1,4.7,3.5ZM26.2,99.6a7.412,7.412,0,0,1,5.4,2.3,7.047,7.047,0,0,1,1.8,3.9,7.357,7.357,0,0,1,.4-4.4,7.1,7.1,0,0,1,4.3-4l.4-.1.2.4a7.237,7.237,0,0,1-3.5,9.6l-.6.3-.4.1-.2-.4a7.838,7.838,0,0,1-.5-1.4,8.6,8.6,0,0,1,.1,1.6v.4H33a7.236,7.236,0,0,1-7.3-7.1V99.7Zm10.7,14a3.009,3.009,0,0,1,3,3,2.946,2.946,0,0,1-3,3,3.009,3.009,0,0,1-3-3h0A3.009,3.009,0,0,1,36.9,113.6Zm106.2,0a3.009,3.009,0,0,1,3,3,2.946,2.946,0,0,1-3,3,3.009,3.009,0,0,1-3-3h0a3.075,3.075,0,0,1,3-3Zm-1.6-10.2a7.555,7.555,0,0,1,.1-5.9l.2-.4.4.1a7.21,7.21,0,0,1,4.7,8.4,7.047,7.047,0,0,1,1.8-3.9,7.251,7.251,0,0,1,5.4-2.3h.4v.4a7.2,7.2,0,0,1-6.6,7.8h-1.1v-.4a8.6,8.6,0,0,1,.1-1.6,8.8,8.8,0,0,1-.5,1.5l-.2.4-.4-.1a6.6,6.6,0,0,1-4.3-4Z" fill="#0f2643"/><path d="M150.3,94.8h0c-.1.7-.1,1.5-.2,2.2a8.752,8.752,0,0,0-.2,1.6,4.331,4.331,0,0,1-.1.5,8.679,8.679,0,0,1,4.2-1h.8a1.09,1.09,0,0,1,1.1,1l.1.8a8.733,8.733,0,0,1-8,9.4h-.6c-.1.4-.3.9-.4,1.3l-.6,1.5c-.1.4-.3.7-.4,1.1a4.416,4.416,0,1,1-2.8-1h0c.1-.4.3-.7.4-1.1l.6-1.5c.1-.3.2-.7.3-1a8.664,8.664,0,0,1-4.3-11.5h0l.3-.7a1.1,1.1,0,0,1,1-.6l.4.1.7.3a8.81,8.81,0,0,1,4.2,3.2c0-.3.1-.7.1-1a7.719,7.719,0,0,0,.2-1.5c.1-.6.1-1.2.2-1.8a8.718,8.718,0,0,1-7.2-10,.756.756,0,0,1,.1-.4l.2-.8a1.088,1.088,0,0,1,1.1-.9h.1l.8.1a8.992,8.992,0,0,1,5.1,2.4c0-.3-.1-.7-.1-1l-.3-2.4a4.4,4.4,0,0,0-.2-1h-.4a8.772,8.772,0,0,1-8.8-8.6v-.8a1.09,1.09,0,0,1,1-1.1l.8-.1h.9a9.16,9.16,0,0,1,4.3,1.1c-.3-1-.7-1.9-1-2.8A8.78,8.78,0,0,1,137.8,58a1.854,1.854,0,0,0,.2-.7l.3-.7a1.2,1.2,0,0,1,1-.7h.3l.8.2a8.78,8.78,0,0,1,5.9,10.8c0,.1-.1.2-.1.3.4,1.1.8,2.1,1.2,3.2a9.874,9.874,0,0,1,3.3-2.8l.7-.3a.749.749,0,0,1,.5-.1,1.05,1.05,0,0,1,.9.5l.4.7a8.739,8.739,0,0,1-3.1,11.9c-.1,0-.1.1-.2.1.1.4.1.9.2,1.3.1.8.2,1.7.3,2.5v.1a8.74,8.74,0,0,1,3.6-1.8l.8-.2h.2a.974.974,0,0,1,1,.8l.2.8a8.637,8.637,0,0,1-5.6,10.9Zm-7.2,20.3a1.5,1.5,0,1,0,1.5,1.5h0A1.473,1.473,0,0,0,143.1,115.1Zm1.9-13.2a6.163,6.163,0,0,0-2.5-2.8,5.532,5.532,0,0,0,2.7,6.4A5.015,5.015,0,0,0,145,101.9Zm1-13.6a5.358,5.358,0,0,0-3-2.1,5.79,5.79,0,0,0,4.1,5.7A6.626,6.626,0,0,0,146,88.3Zm-3.1-26.4a5.939,5.939,0,0,0-2.6-2.6,5.769,5.769,0,0,0,3.1,6.3,6.007,6.007,0,0,0-.5-3.7Zm-2.2,11.6a5.534,5.534,0,0,0,5.2,4.6,5.647,5.647,0,0,0-5.2-4.6Zm10.3,1a5.86,5.86,0,0,0-.1-3.7,5.809,5.809,0,0,0-2.4,4c.1.3.1.5.2.8.1.6.3,1.1.4,1.7a5.862,5.862,0,0,0,1.9-2.8Zm-1.3,28.4a8.341,8.341,0,0,0-.8,1.2c-.1.5-.3,1-.4,1.5-.1.2-.1.5-.2.7a5.843,5.843,0,0,0,4.7-5.1,5.552,5.552,0,0,0-3.3,1.7Zm3.8-17.1a5.951,5.951,0,0,0-2.8,2.4l-.3.6v2.8a5.645,5.645,0,0,0,3.1-5.8Zm-44.1,4.6,2.7,12c1.3,5.6-14.6,12.7-21.5,15.4a2.054,2.054,0,0,1-1.1,0C82.6,115,66.7,108,68,102.4l2.7-12L65,87.6v8.3a1.5,1.5,0,0,1-3,0V86.2l-.6-.3a4.191,4.191,0,0,1-1.9-5.7,4.36,4.36,0,0,1,1.9-1.9L86.8,65.7a7.416,7.416,0,0,1,6.5,0l25.4,12.6a4.191,4.191,0,0,1,1.9,5.7,4.36,4.36,0,0,1-1.9,1.9ZM90,115c10.5-4.3,19.6-9.9,19.2-11.8l-2.5-11.3L95.3,97.5a12.084,12.084,0,0,1-10.5,0L73.4,91.9l-2.5,11.3C70.4,105.1,79.5,110.6,90,115Zm27.3-34.1L92,68.3a4.45,4.45,0,0,0-3.9,0L62.7,80.9a1.32,1.32,0,0,0-.6,1.7.9.9,0,0,0,.6.6L86.1,94.8a9.118,9.118,0,0,0,7.9,0l23.4-11.6a1.32,1.32,0,0,0,.6-1.7A1.344,1.344,0,0,0,117.3,80.9ZM90,83.3c-1.6,0-3-.7-3-1.5s1.3-1.5,3-1.5,3,.7,3,1.5S91.6,83.3,90,83.3ZM36.6,68.8h0c-.5,1-.8,1.9-1.2,2.9a8.564,8.564,0,0,1,4.4-1.2h.9l.8.1a1.09,1.09,0,0,1,1,1.1v.8a8.772,8.772,0,0,1-8.8,8.6h-.6c-.1.4-.1.7-.2,1.1a16.352,16.352,0,0,0-.2,2.2c0,.4-.1.8-.1,1.2a8.523,8.523,0,0,1,5.2-2.5l.8-.1h.1a1.172,1.172,0,0,1,1.1.9l.2.8A8.746,8.746,0,0,1,33.2,95c-.2,0-.3.1-.5.1,0,.5.1,1.1.1,1.6s.2,1.1.2,1.6c.1.4.1.8.2,1.1a8.378,8.378,0,0,1,4.3-3.3l.7-.3.4-.1a1.1,1.1,0,0,1,1,.6l.3.7a8.633,8.633,0,0,1-4.3,11.5.1.1,0,0,0-.1.1c.1.2.1.4.2.6.2.5.4,1.1.6,1.6.2.4.3.8.5,1.3h0a4.45,4.45,0,0,1,.1,8.9,4.527,4.527,0,0,1-4.5-4.4,4.475,4.475,0,0,1,1.6-3.5c-.2-.4-.3-.9-.5-1.3-.2-.5-.4-1.1-.6-1.6-.1-.3-.2-.6-.3-1a8.589,8.589,0,0,1-8.4-9v-.4l.1-.8a1.028,1.028,0,0,1,1.1-1h.8a7.924,7.924,0,0,1,4,1,4.331,4.331,0,0,0-.1-.5c-.1-.5-.1-1-.2-1.6-.1-.7-.1-1.4-.2-2.1h0A8.692,8.692,0,0,1,24,83.9h0l.2-.8a1.187,1.187,0,0,1,1-.8h.2l.8.2a8.8,8.8,0,0,1,3.5,1.7v-.1a19.67,19.67,0,0,1,.3-2.4,7.844,7.844,0,0,0,.2-1.4,8.8,8.8,0,0,1-3.3-11.9.1.1,0,0,1,.1-.1l.4-.7a1.193,1.193,0,0,1,.9-.5.9.9,0,0,1,.5.1l.7.3a8.577,8.577,0,0,1,3.3,2.7L34,66.9A8.748,8.748,0,0,1,39.8,56h.1l.8-.2H41a1.2,1.2,0,0,1,1,.7l.3.7a8.663,8.663,0,0,1-4.9,11.3A2.613,2.613,0,0,1,36.6,68.8Zm-.5,20.9a6.3,6.3,0,0,0,1.1-3.5,5.707,5.707,0,0,0-4.1,5.7A5.908,5.908,0,0,0,36.1,89.7Zm.8,28.3a1.5,1.5,0,1,0-1.5-1.5A1.473,1.473,0,0,0,36.9,118Zm-2-12.4a5.584,5.584,0,0,0,2.7-6.4,5.584,5.584,0,0,0-2.7,6.4ZM29.4,88.2a5.09,5.09,0,0,0-2.8-2.4,5.807,5.807,0,0,0,2.9,5.8V90.1a7.569,7.569,0,0,1,.1-1.5c-.1-.2-.1-.3-.2-.4Zm2-14.4a5.525,5.525,0,0,0-2.2-3,5.569,5.569,0,0,0,1.7,6.3,12.437,12.437,0,0,1,.4-1.6c.1-.4.2-.7.3-1.1-.1-.2-.1-.4-.2-.6Zm.1,31.6c-.2-.6-.3-1.2-.5-1.7h0a4.349,4.349,0,0,0-.6-.7,5.853,5.853,0,0,0-3.3-1.7,5.631,5.631,0,0,0,4.5,5,2.483,2.483,0,0,0-.1-.9Zm7.9-31.9a5.743,5.743,0,0,0-5.2,4.6,5.534,5.534,0,0,0,5.2-4.6Zm.4-14.2a5.771,5.771,0,0,0-3.1,6.3,5.707,5.707,0,0,0,3.1-6.3Z" fill="#ffce00"/><path d="M138.8,131.3c-1.1,1.3-2.3,2.5-3.5,3.7a.75.75,0,0,1-1.2,0l-.1-.1-4.3-5.2a1.049,1.049,0,0,1,0-1.3c1-1,2-2.1,3-3.2a.785.785,0,0,1,1.1,0h0a.91.91,0,0,1,.1,1.2,30.7,30.7,0,0,1-2.5,2.6l1.2,1.3c.7-.7,1.5-1.5,2.2-2.3a.792.792,0,0,1,1.1-.1h0a.912.912,0,0,1,0,1.2c-.7.8-1.5,1.6-2.2,2.4.4.5.8.9,1.2,1.4.9-.9,1.8-1.9,2.7-2.9a.792.792,0,0,1,1.1-.1h0A1.075,1.075,0,0,1,138.8,131.3Zm-4.1-83.7a36.983,36.983,0,0,0-2.8-2.8l-1.3,1.4c.8.7,1.5,1.5,2.3,2.3a.935.935,0,0,1-.1,1.3.91.91,0,0,1-1.2,0c-.7-.8-1.5-1.5-2.2-2.2L128.1,49c.9.8,1.7,1.7,2.6,2.6a.948.948,0,0,1-.2,1.3,1.083,1.083,0,0,1-1.1,0,29.124,29.124,0,0,0-3.1-3,.935.935,0,0,1,.1-1.3l4.8-5.4a.966.966,0,0,1,1.4-.1h0c1.2,1.1,2.4,2.3,3.6,3.5a1.051,1.051,0,0,1,0,1.3c-.3.4-1.2,0-1.5-.3Zm-9.5-7.5a1.381,1.381,0,0,1-.3-.4,3.269,3.269,0,0,0-1.1-1.5.936.936,0,0,0-1.3,0l-.1.1h0c-.3.5-.1.9.8,2,1.1,1.3,1.4,2.5.5,3.8h0a2.76,2.76,0,0,1-3.8.9c-.1,0-.1-.1-.2-.1a4.665,4.665,0,0,1-1.8-2.4,1.063,1.063,0,0,1,.1-.8.841.841,0,0,1,1.1-.4h0c.2.1.3.2.3.4a3.6,3.6,0,0,0,1.2,1.8.853.853,0,0,0,1.3,0l.1-.1h0c.3-.4.2-.8-.7-1.9-1.1-1.3-1.7-2.2-.8-3.8h0a2.561,2.561,0,0,1,3.6-1,.758.758,0,0,0,.4.2,4.181,4.181,0,0,1,1.8,2.3.972.972,0,0,1-.1.9c0,.2-.5.3-1,0Zm-6.1,99.8h0a2.873,2.873,0,0,1-.2,3.2l1.8.9a1.024,1.024,0,0,1,.6.5.869.869,0,0,1-.4,1.2.908.908,0,0,1-1,0c-.9-.4-1.7-.9-2.6-1.4-.4.2-.9.4-1.3.6l.7,1.8a.992.992,0,0,1-.5,1.3.883.883,0,0,1-1.2-.5v-.1c-.8-2.2-1.7-4.3-2.5-6.5a.926.926,0,0,1,.4-1.2,16.268,16.268,0,0,0,2.3-1.1,2.678,2.678,0,0,1,2.3-.2,2.646,2.646,0,0,1,1.6,1.5Zm-1.5.9h0a1.189,1.189,0,0,0-1.5-.7c-.1,0-.2.1-.3.1-.5.2-1,.5-1.5.7a15.955,15.955,0,0,0,1,2.3,11.938,11.938,0,0,0,1.6-.8,1.217,1.217,0,0,0,.7-1.6ZM115.4,37.5c-1.3,2.5-3,3.2-4.8,2.5s-2.4-2.4-1.6-5l1.4-4.1a.922.922,0,1,1,1.8.4c0,.1,0,.1-.1.2-.5,1.3-1,2.7-1.5,4-.5,1.4-.2,2.4.7,2.7s1.8,0,2.4-1.4l1.8-4a.949.949,0,1,1,1.8.6c0,.1,0,.1-.1.2l-1.8,3.9Zm-8.2,110.1a.709.709,0,0,1-.9-.6h0a.825.825,0,0,1,.5-1c.6-.2,1.2-.4,1.9-.6a.945.945,0,0,1,1.1.6h0l.6,2.1a1.4,1.4,0,0,1-.2,1.4,5.63,5.63,0,0,1-2.6,1.7,4.064,4.064,0,0,1-5-2.7c-.1-.2-.1-.5-.2-.8h0c-.4-2.5.8-4.8,2.9-5.4a3.339,3.339,0,0,1,2.6.1,1.167,1.167,0,0,1,.6.6.883.883,0,0,1-.5,1.2c-.2.1-.4,0-.5,0a2.03,2.03,0,0,0-1.7-.1,2.568,2.568,0,0,0-1.5,3.2h0a2.477,2.477,0,0,0,2.7,2.2.367.367,0,0,0,.3-.1,3.072,3.072,0,0,0,1.5-1l-.3-1.2a4.951,4.951,0,0,0-1.3.4ZM104.9,33c-.7,2.6-2.8,4.2-5,3.8s-3.5-2.7-3.2-5.3h0a4.247,4.247,0,0,1,4.3-4.2,4.185,4.185,0,0,1,4.2,4.3,3.926,3.926,0,0,1-.3,1.4Zm-3.5-3.8a2.437,2.437,0,0,0-2.8,2.2v.2h0c-.2,1.6.5,3,1.8,3.3s2.5-.8,2.8-2.4h0a2.527,2.527,0,0,0-1.6-3.3ZM98.2,144.8a.887.887,0,0,1-.6,1c-1.1.1-2.2.3-3.3.3,0,.6.1,1.2.1,1.8,1-.1,2-.2,2.9-.3a.9.9,0,0,1,.9.9.961.961,0,0,1-.7.9l-3,.3.1,1.9c1.2-.1,2.4-.2,3.7-.4a.817.817,0,0,1,.9.8.961.961,0,0,1-.7.9,35.732,35.732,0,0,1-4.7.4,1.063,1.063,0,0,1-1-.9h0l-.3-6.9a.9.9,0,0,1,.8-1c1.3-.1,2.7-.2,4-.4a.808.808,0,0,1,.9.7Zm-7-109.1a.974.974,0,0,1-.8-1V31.9c-1,0-2.1,0-3.1.1,0,.9.1,1.9.1,2.8a.791.791,0,0,1-1.5.5v-.4c-.2-2.5-.4-4.9-.5-7.4a.922.922,0,1,1,1.8-.4v.2c0,.9.1,1.8.1,2.7,1.1,0,2.1-.1,3.2-.1V27.2a.906.906,0,0,1,1.8-.2v.2c-.1,2.5-.2,4.9-.3,7.4A.89.89,0,0,1,91.2,35.7ZM88.5,149h0a3.918,3.918,0,0,1-3.9,4.2H84c-.8-.1-1.5-.2-2.3-.3a.991.991,0,0,1-.8-1.1h0l.9-6.9a.9.9,0,0,1,.9-.9,15.028,15.028,0,0,0,2,.2A4.424,4.424,0,0,1,88.5,149Zm-3.9-2.9c-.4,0-.8-.1-1.3-.1-.2,1.8-.4,3.6-.5,5.3a6.6,6.6,0,0,0,1.4.1,2.425,2.425,0,0,0,2.6-2.1v-.4h0a2.544,2.544,0,0,0-2.2-2.8ZM81,36.4c-1.3.2-2.6.5-4,.8a.846.846,0,0,1-1-.8c-.6-2.3-1.2-4.7-1.8-7a.931.931,0,0,1,.6-1.2h0a34.023,34.023,0,0,1,4.6-.9,1.063,1.063,0,0,1,1,.9.961.961,0,0,1-.7.9c-1.2.2-2.4.4-3.6.7.1.6.3,1.2.4,1.8l3-.6a.9.9,0,0,1,.9.9.961.961,0,0,1-.6.9c-1,.2-1.9.4-2.9.6.1.6.3,1.3.4,1.9,1.1-.2,2.2-.5,3.3-.6a.987.987,0,0,1,.9,1c.1.2-.1.5-.5.7ZM72.4,145.5c1,.3,2,.6,3,.8l.6-2.5a.974.974,0,0,1,1-.8h0a.955.955,0,0,1,.6,1.1L76.2,151a.974.974,0,0,1-1,.8h-.1a1.028,1.028,0,0,1-.7-1.2h0c.2-.9.4-1.7.6-2.6-1-.3-2.1-.5-3.1-.9-.2.9-.5,1.7-.7,2.6a.921.921,0,0,1-1.1.7H70a.931.931,0,0,1-.6-1.2c.7-2.2,1.4-4.5,2.1-6.7a.871.871,0,0,1,1-.7h0A.883.883,0,0,1,73,143c-.2.8-.4,1.6-.6,2.5ZM71.6,38.8c-1.3.5-2.5,1-3.8,1.5a1.02,1.02,0,0,1-1.2-.6l-3.1-6.6a.883.883,0,0,1,.4-1.3h0c1.4-.6,2.9-1.2,4.4-1.8a.921.921,0,0,1,1.1.7.825.825,0,0,1-.5,1,34.543,34.543,0,0,0-3.4,1.4c.2.6.5,1.2.7,1.7.9-.4,1.9-.8,2.8-1.1a.921.921,0,0,1,1.1.7.876.876,0,0,1-.5,1c-.9.3-1.8.7-2.8,1.1l.8,1.8a17.549,17.549,0,0,1,3.2-1.2.991.991,0,0,1,1.1.8.659.659,0,0,1-.3.9Zm-9.1,4.4a1.167,1.167,0,0,1-1,0c-.9-.4-1.8-.9-2.7-1.3a10.474,10.474,0,0,0-1.1.8l1.2,1.7a.849.849,0,0,1-1.2,1.2c-.1-.1-.1-.2-.2-.3l-4.3-5.9a.988.988,0,0,1,.2-1.4h0c.8-.6,1.7-1.2,2.5-1.7a3.055,3.055,0,0,1,2.6-.5,3.53,3.53,0,0,1,1.7,1.5h0a3.04,3.04,0,0,1,.1,3.3c.6.3,1.3.6,1.9.9a1.024,1.024,0,0,1,.6.5.954.954,0,0,1-.3,1.2Zm-3.9-4.8h0a1.32,1.32,0,0,0-1.7-.6c-.1,0-.2.1-.3.2-.5.3-1,.7-1.5,1l1.5,2.2c.5-.3,1-.7,1.5-1a1.2,1.2,0,0,0,.5-1.7v-.1ZM51,50.9l-4.6-4.6-1.3,1.3a.854.854,0,0,1-1.3,0,.935.935,0,0,1-.1-1.3h0a54.389,54.389,0,0,1,4.2-4.1.935.935,0,0,1,1.3.1h0a1.051,1.051,0,0,1,0,1.3c-.5.4-.9.8-1.4,1.2l4.4,4.7a.86.86,0,0,1-1,1.4c0,.1-.1,0-.2,0Zm-5.1,75.5a.817.817,0,0,1,.1-1.2.785.785,0,0,1,1.1,0h0c1.1,1.3,2.3,2.5,3.5,3.7a.9.9,0,0,1-1.1,1.4h-.1l-1.2-1.2-4,4.5a.823.823,0,0,1-1.2.1l-.1-.1a.967.967,0,0,1,0-1.4l4.1-4.4A13.443,13.443,0,0,0,45.9,126.4Zm7.7,6.3a.926.926,0,0,1,1.2-.3h0c1.1.9,2.2,1.7,3.4,2.5a1.063,1.063,0,0,1,.2,1.2.693.693,0,0,1-1,.3h-.1a28.319,28.319,0,0,1-2.8-2l-1,1.5c.8.6,1.6,1.2,2.5,1.8a.83.83,0,0,1,.2,1.2.714.714,0,0,1-1,.3h-.1c-.9-.6-1.7-1.2-2.5-1.8l-1,1.5c1,.8,2.1,1.5,3.1,2.2a.954.954,0,0,1,.3,1.2.8.8,0,0,1-1.1.3h-.1c-1.3-.9-2.7-1.9-3.9-2.9a1.058,1.058,0,0,1-.2-1.4Zm6.4,8.5c1.2-2.2,3.5-3.2,5.5-2.3a4.144,4.144,0,0,1,1.9,1.8,1.1,1.1,0,0,1,0,.8.945.945,0,0,1-1.1.6h-.1a.781.781,0,0,1-.4-.4,2.282,2.282,0,0,0-4.3.3h0a2.729,2.729,0,0,0,.9,3.6h0a2.51,2.51,0,0,0,1.9.1.637.637,0,0,1,.6,0,1.083,1.083,0,0,1,.5,1.2,1.205,1.205,0,0,1-.5.5,3.983,3.983,0,0,1-3.2-.2,4.372,4.372,0,0,1-2-5.8c.2,0,.3-.1.3-.2Zm61.9-6.5c1.2-.8,2.3-1.6,3.4-2.5a.814.814,0,0,1,1.1.2h0a.91.91,0,0,1-.1,1.2c-.9.7-1.8,1.4-2.8,2.1l.9,1.5c.8-.6,1.7-1.2,2.5-1.8a.731.731,0,0,1,1.1.2h0a.91.91,0,0,1-.1,1.2c-.8.7-1.7,1.3-2.5,1.9l1,1.6c1-.7,2.1-1.5,3.1-2.3a.784.784,0,0,1,1.1.1h0a.83.83,0,0,1-.2,1.2c-1.3,1-2.6,2-3.9,2.9a.816.816,0,0,1-1.2-.2.1.1,0,0,0-.1-.1c-1.2-2-2.3-3.9-3.5-5.9a1.062,1.062,0,0,1,.2-1.3Z" fill="#65b2cd"/><path d="M132.4,92.5a1.485,1.485,0,0,1-2.1-2.1,1.5,1.5,0,0,1,1.1-.4,1.159,1.159,0,0,1,1,.4A1.657,1.657,0,0,1,132.4,92.5Zm-1.9-15.9-3,1.5a1.528,1.528,0,0,1-2-.7,1.433,1.433,0,0,1,.6-1.9l3-1.5a1.489,1.489,0,0,1,2,.6,1.408,1.408,0,0,1-.6,2Zm-3.6,14.9a1.528,1.528,0,0,1-.4,1,1.45,1.45,0,0,1-2.1,0,1.433,1.433,0,0,1-.4-1,1.528,1.528,0,0,1,.4-1,1.433,1.433,0,0,1,1-.4,1.5,1.5,0,0,1,1.1.4,1.528,1.528,0,0,1,.4,1Zm-5.3-31.6a1.551,1.551,0,1,1,1.5-1.6,1.5,1.5,0,0,1-.4,1.1,1.392,1.392,0,0,1-1.1.5Zm6.7,49.8a1.431,1.431,0,0,1-1.9.8h0l-7.4-3a1.458,1.458,0,1,1,1.1-2.7l7.4,3a1.517,1.517,0,0,1,.8,1.9Zm-11-45.5a1.528,1.528,0,0,1-1-.4,1.485,1.485,0,1,1,2.1,0h0a1.862,1.862,0,0,1-1.1.4Zm-1.5,55.1a1.485,1.485,0,1,1,0-2.1,1.45,1.45,0,0,1,0,2.1ZM113,68.5a1.159,1.159,0,0,1-1-.4,1.433,1.433,0,0,1-.4-1,1.528,1.528,0,0,1,.4-1,1.487,1.487,0,1,1,2.2,2l-.1.1A6.148,6.148,0,0,1,113,68.5ZM111.9,114a1.528,1.528,0,0,1-.4,1,1.45,1.45,0,0,1-2.1,0,1.284,1.284,0,0,1-.4-1,1.528,1.528,0,0,1,.4-1,1.433,1.433,0,0,1,1-.4,1.338,1.338,0,0,1,1.5,1.4Zm-6.5,12.5a1.4,1.4,0,0,1-1.9-.8l-2.3-5.4a1.458,1.458,0,1,1,2.7-1.1l2.3,5.4a1.463,1.463,0,0,1-.8,1.9Zm-1.5-66.1a1.446,1.446,0,0,1-1.9.9,1.556,1.556,0,0,1-.9-1.8l2.2-6.8a1.446,1.446,0,0,1,1.9-.9,1.556,1.556,0,0,1,.9,1.8ZM90,140.2a1.486,1.486,0,0,1-1.1-2.5,1.433,1.433,0,0,1,1-.4,1.5,1.5,0,0,1,1.1.4,1.45,1.45,0,0,1,0,2.1A1.528,1.528,0,0,1,90,140.2Zm0-7.4a1.5,1.5,0,1,1,1.5-1.5h0A1.538,1.538,0,0,1,90,132.8Zm0-7.4a1.486,1.486,0,0,1-1.1-2.5,1.657,1.657,0,0,1,2.1,0,1.45,1.45,0,0,1,0,2.1,1.528,1.528,0,0,1-1,.4Zm0-64.9A1.486,1.486,0,0,1,88.9,58a1.433,1.433,0,0,1,1-.4A1.5,1.5,0,0,1,91,58a1.45,1.45,0,0,1,0,2.1A1.528,1.528,0,0,1,90,60.5Zm0-7.4a1.5,1.5,0,1,1,1.5-1.5A1.538,1.538,0,0,1,90,53.1Zm0-10.3h0a1.538,1.538,0,0,1,1.5,1.5h0A1.538,1.538,0,0,1,90,45.8h0a1.538,1.538,0,0,1-1.5-1.5h0A1.473,1.473,0,0,1,90,42.8ZM76.1,125.7a1.458,1.458,0,0,1-2.7-1.1l2.3-5.4a1.458,1.458,0,0,1,2.7,1.1Zm1.4-64.3-.4.1a1.32,1.32,0,0,1-1.4-1.1l-1.8-6.8a1.512,1.512,0,0,1,1-1.8c.1,0,.3-.1.4-.1a1.5,1.5,0,0,1,1.4,1.1l1.8,6.8a1.474,1.474,0,0,1-1,1.8Zm-9,53a1.538,1.538,0,0,1-1.5-1.5,1.451,1.451,0,0,1,2.9-.1v.1a1.342,1.342,0,0,1-1.4,1.5ZM66,69.6a1.528,1.528,0,0,1-1-.4,1.485,1.485,0,1,1,2.1,0h0a3.582,3.582,0,0,1-1.1.4Zm-.7,48.7a1.485,1.485,0,1,1,0-2.1,1.657,1.657,0,0,1,0,2.1Zm-3.6-53a1.528,1.528,0,0,1-1-.4,1.45,1.45,0,0,1,0-2.1h0a1.5,1.5,0,0,1,1.1-.4,1.538,1.538,0,0,1,1.5,1.5A1.71,1.71,0,0,1,61.7,65.3Zm.2,40.4a1.478,1.478,0,0,1-.8,1.9h0l-7.4,3a1.458,1.458,0,0,1-1.1-2.7h0l7.4-3a1.359,1.359,0,0,1,1.9.8ZM57.4,60.9a1.159,1.159,0,0,1-1-.4,1.433,1.433,0,0,1-.4-1,1.528,1.528,0,0,1,.4-1,1.433,1.433,0,0,1,1-.4,1.5,1.5,0,0,1,1.1.4,1.433,1.433,0,0,1,.4,1,1.528,1.528,0,0,1-.4,1,1.5,1.5,0,0,1-1.1.4ZM55.6,92.5a1.45,1.45,0,0,1-2.1,0,1.433,1.433,0,0,1-.4-1,1.528,1.528,0,0,1,.4-1,1.657,1.657,0,0,1,2.1,0,1.433,1.433,0,0,1,.4,1,1.022,1.022,0,0,1-.4,1ZM53.1,78.2a1.854,1.854,0,0,1-.7-.2l-3-1.5a1.5,1.5,0,1,1,1.3-2.7h0l3,1.5a1.63,1.63,0,0,1,.7,2,1.291,1.291,0,0,1-1.3.9ZM49.7,90.4a1.485,1.485,0,1,1-2.1,0,1.5,1.5,0,0,1,1.1-.4,1.159,1.159,0,0,1,1,.4Zm10.2,29.7a1.159,1.159,0,0,1,1,.4,1.485,1.485,0,0,1-2.1,2.1,1.284,1.284,0,0,1-.4-1,1.538,1.538,0,0,1,1.5-1.5Zm59.1,1a1.159,1.159,0,0,1,1,.4,1.433,1.433,0,0,1,.4,1,1.528,1.528,0,0,1-.4,1,1.45,1.45,0,0,1-2.1,0,1.5,1.5,0,0,1-.4-1.1,1.528,1.528,0,0,1,.4-1,6.149,6.149,0,0,1,1.1-.3Z" fill="#0f2643"/></g></svg>