<svg xmlns="http://www.w3.org/2000/svg" xmlns:xlink="http://www.w3.org/1999/xlink" width="950" height="840" viewBox="0 0 950 840"><defs><clipPath id="a"><rect width="950" height="840" transform="translate(1615 1037)" fill="none"/></clipPath></defs><g transform="translate(-1615 -1037)"><rect width="950" height="840" transform="translate(1615 1037)" fill="#37be26"/><g clip-path="url(#a)"><g transform="translate(-1501.5 726)"><path d="M-1857.993,1233.829l-55.992,100,55.992,100h115.431l58.577-100-58.577-100Z" transform="translate(5864.485 -1233.829)" fill="#1b9b2e" stroke="#1b9b2e" stroke-linejoin="round" stroke-width="42"/><path d="M-1857.993,1233.829l-55.992,100,55.992,100h115.431l58.577-100-58.577-100Z" transform="translate(5864.485 -953.829)" fill="#1b9b2e" stroke="#1b9b2e" stroke-linejoin="round" stroke-width="42"/><path d="M-1857.993,1233.829l-55.992,100,55.992,100h115.431l58.577-100-58.577-100Z" transform="translate(5864.485 -673.829)" fill="#1b9b2e" stroke="#1b9b2e" stroke-linejoin="round" stroke-width="42"/><path d="M-1857.993,1233.829l-55.992,100,55.992,100h115.431l58.577-100-58.577-100Z" transform="translate(5864.485 -393.829)" fill="#1b9b2e" stroke="#1b9b2e" stroke-linejoin="round" stroke-width="42"/><path d="M-1857.993,1233.829l-55.992,100,55.992,100h115.431l58.577-100-58.577-100Z" transform="translate(5864.485 -113.829)" fill="#1b9b2e" stroke="#1b9b2e" stroke-linejoin="round" stroke-width="42"/><g transform="translate(-237 142)"><path d="M-1857.993,1233.829l-55.992,100,55.992,100h115.431l58.577-100-58.577-100Z" transform="translate(5864.485 -1233.829)" fill="#1b9b2e" stroke="#1b9b2e" stroke-linejoin="round" stroke-width="42"/><path d="M-1857.993,1233.829l-55.992,100,55.992,100h115.431l58.577-100-58.577-100Z" transform="translate(5864.485 -953.829)" fill="#1b9b2e" stroke="#1b9b2e" stroke-linejoin="round" stroke-width="42"/><path d="M-1857.993,1233.829l-55.992,100,55.992,100h115.431l58.577-100-58.577-100Z" transform="translate(5864.485 -673.829)" fill="#1b9b2e" stroke="#1b9b2e" stroke-linejoin="round" stroke-width="42"/><path d="M-1857.993,1233.829l-55.992,100,55.992,100h115.431l58.577-100-58.577-100Z" transform="translate(5864.485 -393.829)" fill="#1b9b2e" stroke="#1b9b2e" stroke-linejoin="round" stroke-width="42"/><path d="M-1857.993,1233.829l-55.992,100,55.992,100h115.431l58.577-100-58.577-100Z" transform="translate(5864.485 -113.829)" fill="#1b9b2e" stroke="#1b9b2e" stroke-linejoin="round" stroke-width="42"/></g><g transform="translate(-474)"><path d="M-1857.993,1233.829l-55.992,100,55.992,100h115.431l58.577-100-58.577-100Z" transform="translate(5864.485 -1233.829)" fill="#1b9b2e" stroke="#1b9b2e" stroke-linejoin="round" stroke-width="42"/><path d="M-1857.993,1233.829l-55.992,100,55.992,100h115.431l58.577-100-58.577-100Z" transform="translate(5864.485 -953.829)" fill="#1b9b2e" stroke="#1b9b2e" stroke-linejoin="round" stroke-width="42"/><path d="M-1857.993,1233.829l-55.992,100,55.992,100h115.431l58.577-100-58.577-100Z" transform="translate(5864.485 -673.829)" fill="#1b9b2e" stroke="#1b9b2e" stroke-linejoin="round" stroke-width="42"/><path d="M-1857.993,1233.829l-55.992,100,55.992,100h115.431l58.577-100-58.577-100Z" transform="translate(5864.485 -393.829)" fill="#1b9b2e" stroke="#1b9b2e" stroke-linejoin="round" stroke-width="42"/><path d="M-1857.993,1233.829l-55.992,100,55.992,100h115.431l58.577-100-58.577-100Z" transform="translate(5864.485 -113.829)" fill="#1b9b2e" stroke="#1b9b2e" stroke-linejoin="round" stroke-width="42"/></g><g transform="translate(-711 142)"><path d="M-1857.993,1233.829l-55.992,100,55.992,100h115.431l58.577-100-58.577-100Z" transform="translate(5864.485 -1233.829)" fill="#1b9b2e" stroke="#1b9b2e" stroke-linejoin="round" stroke-width="42"/><path d="M-1857.993,1233.829l-55.992,100,55.992,100h115.431l58.577-100-58.577-100Z" transform="translate(5864.485 -953.829)" fill="#1b9b2e" stroke="#1b9b2e" stroke-linejoin="round" stroke-width="42"/><path d="M-1857.993,1233.829l-55.992,100,55.992,100h115.431l58.577-100-58.577-100Z" transform="translate(5864.485 -673.829)" fill="#1b9b2e" stroke="#1b9b2e" stroke-linejoin="round" stroke-width="42"/><path d="M-1857.993,1233.829l-55.992,100,55.992,100h115.431l58.577-100-58.577-100Z" transform="translate(5864.485 -393.829)" fill="#1b9b2e" stroke="#1b9b2e" stroke-linejoin="round" stroke-width="42"/><path d="M-1857.993,1233.829l-55.992,100,55.992,100h115.431l58.577-100-58.577-100Z" transform="translate(5864.485 -113.829)" fill="#1b9b2e" stroke="#1b9b2e" stroke-linejoin="round" stroke-width="42"/></g><g transform="translate(-948)"><path d="M-1857.993,1233.829l-55.992,100,55.992,100h115.431l58.577-100-58.577-100Z" transform="translate(5864.485 -1233.829)" fill="#1b9b2e" stroke="#1b9b2e" stroke-linejoin="round" stroke-width="42"/><path d="M-1857.993,1233.829l-55.992,100,55.992,100h115.431l58.577-100-58.577-100Z" transform="translate(5864.485 -953.829)" fill="#1b9b2e" stroke="#1b9b2e" stroke-linejoin="round" stroke-width="42"/><path d="M-1857.993,1233.829l-55.992,100,55.992,100h115.431l58.577-100-58.577-100Z" transform="translate(5864.485 -673.829)" fill="#1b9b2e" stroke="#1b9b2e" stroke-linejoin="round" stroke-width="42"/><path d="M-1857.993,1233.829l-55.992,100,55.992,100h115.431l58.577-100-58.577-100Z" transform="translate(5864.485 -393.829)" fill="#1b9b2e" stroke="#1b9b2e" stroke-linejoin="round" stroke-width="42"/><path d="M-1857.993,1233.829l-55.992,100,55.992,100h115.431l58.577-100-58.577-100Z" transform="translate(5864.485 -113.829)" fill="#1b9b2e" stroke="#1b9b2e" stroke-linejoin="round" stroke-width="42"/></g></g></g></g></svg>